<?xml version="1.0" encoding="utf-8"?>
<!-- Generator: Adobe Illustrator 23.0.3, SVG Export Plug-In . SVG Version: 6.00 Build 0)  -->
<svg version="1.1" xmlns="http://www.w3.org/2000/svg" xmlns:xlink="http://www.w3.org/1999/xlink" x="0px" y="0px"
	 viewBox="0 0 1920 1080" style="enable-background:new 0 0 1920 1080;" xml:space="preserve">
<style type="text/css">
	.st0{clip-path:url(#pattern_mask_1_);}
	.st1{opacity:0.16;}
	.st2{fill:#0014A0;}
	.st3{opacity:8.000000e-02;}
	.st4{opacity:9.000000e-02;}
	.st5{opacity:0.13;}
	.st6{opacity:6.000000e-02;}
	.st7{opacity:7.000000e-02;}
	.st8{opacity:0.11;}
	.st9{opacity:0.17;}
	.st10{opacity:0.18;}
	.st11{opacity:0.19;}
	.st12{opacity:0.12;}
	.st13{opacity:0.14;}
	.st14{opacity:5.000000e-02;}
	.st15{opacity:0.1;}
	.st16{opacity:0.2;}
	.st17{opacity:0.15;}
</style>
<g id="Nodes_pattern_Primary_Blue">
	<g id="Nodes_pattern_Primary_Blue_1_">
		<defs>
			<rect id="pattern_mask" x="0" y="0" width="1920" height="1080"/>
		</defs>
		<clipPath id="pattern_mask_1_">
			<use xlink:href="#pattern_mask"  style="overflow:visible;"/>
		</clipPath>
		<g id="top_nodes" class="st0">
			<g id="lines">
				<g id="triangle36_36_" class="st1">
					<polygon class="st2" points="-17.5,-85.1 24.8,-67.5 -17.5,-56.9 -17.5,-55.7 28.6,-67.2 -17.5,-86.4 					"/>
				</g>
				<g class="st3">
					<polygon class="st2" points="1960.7,-421 1948.8,-418.9 1948.9,-417.7 1960.7,-418.6 					"/>
				</g>
				<g id="triangle36_50_" class="st4">
					<polygon class="st2" points="1960.7,-70.5 1960.7,-71.9 1859.3,-142.1 1960.7,-133.4 1960.7,-134.7 1854.9,-143.7 					"/>
				</g>
				<g id="triangle36_51_" class="st5">
					<polygon class="st2" points="1910.5,-18.5 1910.7,-18 1960.7,-33.6 1960.7,-34.9 1911.4,-19.5 1858.5,-141.2 1960.7,-70.5 
						1960.7,-71.9 1857.4,-143.4 1855.7,-144.6 					"/>
				</g>
				<g class="st6">
					<polygon class="st2" points="1960.7,-418.4 1958.6,-418.5 1960.7,-418.6 1960.7,-419.8 1948.8,-418.9 1948.8,-417.7 
						1960.7,-417.2 					"/>
				</g>
				<g id="triangle36_71_" class="st1">
					<path class="st2" d="M1665.1-215l-34.6,40.3l-0.3-0.1l-34.2-5.7L1665.1-215z M1630.1-176l30.2-35.3l-60.5,30.2L1630.1-176z"/>
				</g>
				<g id="triangle36_72_" class="st7">
					<polygon class="st2" points="1960.7,-413.2 1960.7,-414.5 1952.6,-417.5 1960.7,-417.2 1960.7,-418.4 1945.1,-419.1 					"/>
				</g>
				<g id="triangle36_73_" class="st4">
					<polygon class="st2" points="1960.7,-291 1960.1,-290.3 1949.5,-417.4 1960.7,-413.2 1960.7,-414.5 1948.2,-419.2 
						1959.2,-287.1 1960.7,-289 					"/>
				</g>
				<g id="triangle36_80_" class="st1">
					<path class="st2" d="M993.1-198.1l71.2,114.9L905.6-33.9L993.1-198.1z M1062.4-83.9l-69.2-111.8L908-35.9L1062.4-83.9z"/>
				</g>
				<g id="triangle36_81_" class="st8">
					<path class="st2" d="M994.2-197.6l-88,164.9l-5.5-159.4l0.6,0L994.2-197.6z M907.3-37.2l84.8-159.1L902-191L907.3-37.2z"/>
				</g>
				<g id="triangle36_91_" class="st9">
					<path class="st2" d="M1863.1-246.2l0,0.7l-5.4,103.4l-0.8-0.3l-196.6-71L1863.1-246.2z M1856.5-143.8l5.3-101l-196.7,31.9
						L1856.5-143.8z"/>
				</g>
				<g id="triangle36_120_" class="st1">
					<path class="st2" d="M1061.1-84.6l62.1,11.3l39.5,67.7L1061.1-84.6z M1122.4-72.2l-56.7-10.3l92.8,72.2L1122.4-72.2z"/>
				</g>
				<g id="triangle36_122_" class="st10">
					<path class="st2" d="M1349.3-349.6l76.7,126l-0.7,0.3l-119.9,43.6L1349.3-349.6z M1424.2-224.2l-74.5-122.3l-42.6,164.9
						L1424.2-224.2z"/>
				</g>
				<g id="triangle36_144_" class="st11">
					<path class="st2" d="M1484-235.8l93.9,60.8l-99.5,16.6L1484-235.8z M1574.7-175.7l-89.6-58l-5.3,73.8L1574.7-175.7z"/>
				</g>
				<g id="triangle36_145_" class="st12">
					<path class="st2" d="M1485.2-235.4l-5.6,77.9l-55.6-66.7L1485.2-235.4z M1478.6-160.7l5.2-73.3l-57.6,10.5L1478.6-160.7z"/>
				</g>
				<g id="triangle36_182_" class="st12">
					<path class="st2" d="M1577.5-176.1l-38.8,66.5l-61-49.9L1577.5-176.1z M1538.3-111.4l36.8-63.1l-94.6,15.8L1538.3-111.4z"/>
				</g>
				<g id="triangle36_183_" class="st7">
					<path class="st2" d="M1032.4-307.2L993.5-196L949-223.8L1032.4-307.2z M992.9-197.8l36.7-104.8L950.9-224L992.9-197.8z"/>
				</g>
				<g id="triangle36_184_" class="st13">
					<path class="st2" d="M950-224.6l0.3,0.2l44.8,28l-1.9,0.1l-94,5.5L950-224.6z M991.3-197.4L950-223.2l-46.4,30.9L991.3-197.4z"
						/>
				</g>
				<g id="triangle36_185_" class="st10">
					<path class="st2" d="M949.7-224.5l0.6,1l-50.5,33.7l6.5-13l0.2-0.1L949.7-224.5z M902.9-193.3l38.7-25.8l-34.4,17.2
						L902.9-193.3z"/>
				</g>
				<g id="triangle36_186_" class="st6">
					<path class="st2" d="M817.6-340.5l133.4,116.8l-44.5,22.2l-0.3-0.5L817.6-340.5z M948.9-224.1l-125.7-110l83.8,131L948.9-224.1
						z"/>
				</g>
				<g id="triangle36_201_" class="st10">
					<path class="st2" d="M102.5-294.8l44.8,61.6L52.1-278L102.5-294.8z M143.6-236.3L102-293.4l-46.7,15.6L143.6-236.3z"/>
				</g>
				<g id="triangle36_202_" class="st14">
					<path class="st2" d="M30.7-311.2l73.8,17l-51.1,17l-0.3-0.4L30.7-311.2z M100.1-294l-66.6-15.4l20.5,30.8L100.1-294z"/>
				</g>
				<g id="triangle36_217_" class="st15">
					<path class="st2" d="M360.4-391.9h115.7L410-309.3l-0.4-0.7L360.4-391.9z M473.6-390.7H362.5l47.6,79.3L473.6-390.7z"/>
				</g>
				<g id="triangle36_218_" class="st16">
					<path class="st2" d="M361.4-392.5l0.6,0.9l49.1,81.8l-99.3,11l0.5-1L361.4-392.5z M409-310.8l-47.6-79.3l-47.6,89.8L409-310.8z
						"/>
				</g>
				<g id="triangle36_219_" class="st17">
					<path class="st2" d="M1247.5-75.5v51.7l-34.4,23L1247.5-75.5z M1246.3-24.5V-70L1216-4.2L1246.3-24.5z"/>
				</g>
				<g id="triangle36_220_" class="st15">
					<path class="st2" d="M1248.5-74.6l-33.6,72.7l-56-5.6L1248.5-74.6z M1214.2-3.2l31.2-67.6l-83.2,62.4L1214.2-3.2z"/>
				</g>
				<g id="triangle36_221_" class="st11">
					<path class="st2" d="M1121.7-73.3h127l-88.4,66.3L1121.7-73.3z M1245.1-72.1h-121.3l36.9,63.3L1245.1-72.1z"/>
				</g>
				<g id="triangle36_237_" class="st8">
					<path class="st2" d="M901.9-193.4l5.5,160l-1.1-1.2l-65.1-70.5l0.3-0.4L901.9-193.4z M906.1-36.5l-5.3-153.1l-58.1,84.5
						L906.1-36.5z"/>
				</g>
				<g id="triangle36_253_" class="st1">
					<path class="st2" d="M1553.4-273.9l110.6,60.8l-66.4,33.2L1553.4-273.9z M1661.4-213.1L1556-271.1l42.1,89.6L1661.4-213.1z"/>
				</g>
				<g id="triangle36_254_" class="st9">
					<path class="st2" d="M1552.9-277.7l45.8,97.4l-22.9,5.7L1552.9-277.7z M1597.1-181.1l-40.6-86.2l20.3,91.3L1597.1-181.1z"/>
				</g>
				<g id="triangle36_255_" class="st13">
					<path class="st2" d="M1555.1-273.4l22.1,99.4l-93.9-60.7L1555.1-273.4z M1575.4-176.6l-21.1-95l-68.6,36.9L1575.4-176.6z"/>
				</g>
				<g id="triangle36_266_" class="st6">
					<path class="st2" d="M1910.9,93.6l33.6,33.6l-61.6,28L1910.9,93.6z M1942.4,126.9l-31.2-31.2l-26,57.1L1942.4,126.9z"/>
				</g>
				<g id="triangle36_274_" class="st1">
					<path class="st2" d="M205.2-192.4l11.3,28.3l-0.7,0.1l-89.9,16.9L205.2-192.4z M214.8-165l-10.3-25.7l-71.9,41.1L214.8-165z"/>
				</g>
				<g id="triangle36_275_" class="st7">
					<path class="st2" d="M145.1-235.8l0.8,0.6l60.1,43.7l-0.8,0.5l-76.7,43.8L145.1-235.8z M203.8-191.6l-57.9-42.1l-15.8,84.2
						L203.8-191.6z"/>
				</g>
				<g id="triangle36_281_" class="st7">
					<path class="st2" d="M1824.4,222.1l28.1,61.8l-39.3,22.5L1824.4,222.1z M1850.9,283.4l-25.9-57l-10.4,77.7L1850.9,283.4z"/>
				</g>
				<g id="triangle36_282_" class="st6">
					<path class="st2" d="M1825.5,222.9l-11.1,83.1l-77.5-16.6L1825.5,222.9z M1813.4,304.5l10.5-78.9l-84.2,63.1L1813.4,304.5z"/>
				</g>
				<g id="triangle36_302_" class="st10">
					<path class="st2" d="M1814,304.3l93.4,142.8l-159.3-76.9L1814,304.3z M1904,444.1l-90.2-138l-63.7,63.7L1904,444.1z"/>
				</g>
				<g id="triangle36_311_" class="st11">
					<path class="st2" d="M1850.2,282l110.3,66.2l-38.6,71.7l-0.5-1L1850.2,282z M1958.9,348.6l-105.7-63.4l68.7,132.1L1958.9,348.6
						z"/>
				</g>
				<g id="triangle36_312_" class="st6">
					<path class="st2" d="M1924.2,413.6l-19.1,57.3v-25.5l0.1-0.1L1924.2,413.6z M1906.3,463.5l13.3-39.9l-13.3,22.2V463.5z"/>
				</g>
				<g id="triangle36_313_" class="st12">
					<path class="st2" d="M1814.3,304.8l108.3,113.7l-16.9,28.2l-0.5-0.8l-91.8-140.4L1814.3,304.8z M1921.1,418.7L1818,310.4
						l87.7,134.1L1921.1,418.7z"/>
				</g>
				<g id="triangle36_314_" class="st12">
					<path class="st2" d="M1851.9,282.8l0.3,0.6l72.2,138.8l-111.4-117L1851.9,282.8z M1919.4,415.1l-67.9-130.7l-36.6,20.9
						L1919.4,415.1z"/>
				</g>
				<g id="triangle36_320_" class="st15">
					<path class="st2" d="M129.5-149.3l71.2,136.9l-1.4-0.4L25.4-67.1l0.9-0.7L129.5-149.3z M198.3-14.3l-69.2-133.1L27.9-67.6
						L198.3-14.3z"/>
				</g>
				<g id="triangle36_326_" class="st11">
					<polygon class="st2" points="-17.5,15.9 26.4,-65.6 74.4,147.4 -17.5,91.5 -17.5,92.9 75,149.2 76.2,149.9 27.3,-67.5 
						26.9,-69 -17.5,13.4 					"/>
				</g>
				<g id="triangle36_327_" class="st14">
					<polygon class="st2" points="-17.5,-55.7 25.5,-66.4 -17.5,13.4 -17.5,15.9 27.2,-67.1 27.9,-68.3 -17.5,-56.9 					"/>
				</g>
				<g id="triangle36_332_" class="st13">
					<path class="st2" d="M527.3-311.2l29.2,5.8l-5.8,23.4L527.3-311.2z M555.1-304.4l-24.8-5l19.8,24.8L555.1-304.4z"/>
				</g>
				<g id="triangle36_360_" class="st11">
					<path class="st2" d="M1597.5-181.4l0.5,0.1l33.4,5.6l-56.5,73.5L1597.5-181.4z M1629.2-174.9l-30.9-5.1l-20.6,72L1629.2-174.9z
						"/>
				</g>
				<g id="triangle36_361_" class="st15">
					<path class="st2" d="M1598.8-181.6l-23.1,80.7v-75L1598.8-181.6z M1576.9-109.4l20.1-70.5l-20.1,5V-109.4z"/>
				</g>
				<g id="triangle36_362_" class="st11">
					<path class="st2" d="M1537.2-111.3l39.7,5.7l11.3,62.3L1537.2-111.3z M1575.8-104.6l-35.9-5.1l46.2,61.6L1575.8-104.6z"/>
				</g>
				<g id="triangle36_363_" class="st4">
					<path class="st2" d="M1576.9-177.5v73.1l-39.4-5.6L1576.9-177.5z M1575.7-105.8v-67.3l-36.2,62.1L1575.7-105.8z"/>
				</g>
				<g id="triangle36_396_" class="st14">
					<path class="st2" d="M142.8-235.9l79.2,17l-17,28.3L142.8-235.9z M220.1-218.1l-72-15.4l56.6,41.1L220.1-218.1z"/>
				</g>
				<g id="triangle36_422_" class="st13">
					<path class="st2" d="M799.1-256.9l108.5,54.3l-6,11.9l-0.6-0.4l-102.6-64.8L799.1-256.9z M906-202.1l-96.7-48.3l91.8,58
						L906-202.1z"/>
				</g>
				<g id="triangle36_423_" class="st7">
					<path class="st2" d="M820.2-338.8l0.7,1.2l87.6,136.8L798.1-256L820.2-338.8z M905.1-203.8l-84.5-132l-21.1,79.2L905.1-203.8z"
						/>
				</g>
				<g id="triangle36_424_" class="st1">
					<path class="st2" d="M797.8-257.7l1.3,0.8l103.1,65.1l-0.4,0.5l-60.1,87.4l-0.4-1.2L797.8-257.7z M900.5-191.3L799.8-255
						l42.4,148.4L900.5-191.3z"/>
				</g>
				<g id="triangle36_473_" class="st14">
					<path class="st2" d="M473.2-392.6l94.4,38.9l-0.6,0.6l-38.3,43.8l-0.4-0.7L473.2-392.6z M565.6-353.3L476.4-390l52.5,78.7
						L565.6-353.3z"/>
				</g>
				<g id="triangle36_514_" class="st12">
					<path class="st2" d="M1027.7-307.5l134.1,78.2l-39.1,22.4L1027.7-307.5z M1159.4-229.3l-125.1-73l88.6,93.8L1159.4-229.3z"/>
				</g>
				<g id="triangle36_515_" class="st1">
					<path class="st2" d="M1123.4-210.4V-72l-60.9-11.1L1123.4-210.4z M1122.2-73.5v-131.6L1064.2-84L1122.2-73.5z"/>
				</g>
				<g id="triangle36_516_" class="st12">
					<path class="st2" d="M1123.8-208.4l-60.3,126.1l-71.3-115.2l1-0.1L1123.8-208.4z M1063.3-84.8l58.5-122.2l-127.6,10.6
						L1063.3-84.8z"/>
				</g>
				<g id="triangle36_517_" class="st3">
					<path class="st2" d="M1030.7-306l0.7,0.7l92.7,98.1l-131.8,11L1030.7-306z M1121.5-208.2l-90.3-95.6L994-197.6L1121.5-208.2z"
						/>
				</g>
				<g id="triangle36_559_" class="st10">
					<polygon class="st2" points="1960.7,15 1960.7,13.6 1912.5,-18.5 1960.7,-33.6 1960.7,-34.9 1909.7,-18.9 					"/>
				</g>
				<g id="triangle36_624_" class="st12">
					<path class="st2" d="M410-311.4l0.5,0.7l60.1,87.4l-1.2-0.1L355-228.8L410-311.4z M468.2-224.6L410-309.2l-52.9,79.4
						L468.2-224.6z"/>
				</g>
				<g id="triangle36_625_" class="st9">
					<path class="st2" d="M411.3-311L356-228.2L311.8-300l0.9-0.1L411.3-311z M356.1-230.4l52.8-79.1l-95,10.6L356.1-230.4z"/>
				</g>
				<g id="triangle36_628_" class="st9">
					<path class="st2" d="M1319.4-459.2l213.6,46.9l70.3,0l0.1-1.2l-274.2-45.7H1319.4z M1533.2-413.5L1335-457l261.1,43.5H1533.2z"
						/>
				</g>
				<g id="triangle36_673_" class="st6">
					<path class="st2" d="M1663.2-214.6l5.6,84.2l-39.3-44.9l0.3-0.4L1663.2-214.6z M1667.4-133.9l-5.2-77.7l-31.1,36.3
						L1667.4-133.9z"/>
				</g>
				<g id="triangle36_674_" class="st13">
					<path class="st2" d="M1630.3-176.3l38.9,44.5l-94.5,27.8L1630.3-176.3z M1667-132.4l-36.7-41.9l-52.4,68.1L1667-132.4z"/>
				</g>
				<g id="triangle36_675_" class="st16">
					<path class="st2" d="M1670.1-133.3l-83.3,88.9l-11.1-61.1L1670.1-133.3z M1587.5-47l78.7-83.9l-89.1,26.2L1587.5-47z"/>
				</g>
				<g id="triangle36_713_" class="st8">
					<polygon class="st2" points="-17.5,-454.5 -3.9,-459.2 -7.6,-459.2 -17.5,-455.8 					"/>
					<polygon class="st2" points="-17.5,-404 23.2,-459.2 21.7,-459.2 -17.5,-406 					"/>
				</g>
				<g id="triangle36_724_" class="st15">
					<path class="st2" d="M146.3-235.7l-16.5,88.2l-0.7-0.3l-98.6-38.3l1.4-0.6L146.3-235.7z M128.8-149.1l15.9-84.6l-111,47.6
						L128.8-149.1z"/>
				</g>
				<g id="triangle36_725_" class="st7">
					<path class="st2" d="M53.3-278.8l0.7,0.3l93,43.8L31.2-185.1L53.3-278.8z M144-234.7l-89.9-42.3l-21.2,89.9L144-234.7z"/>
				</g>
				<g id="triangle36_726_" class="st17">
					<polygon class="st2" points="-17.5,-154.4 29.6,-183.9 -17.5,-122.3 -17.5,-120.3 34.6,-188.4 -17.5,-155.9 					"/>
				</g>
				<g id="triangle36_767_" class="st16">
					<polygon class="st2" points="581.9,-459.2 566.1,-354.4 476.1,-391.4 580.4,-459.2 578.2,-459.2 474.5,-391.8 473.5,-391.2 
						566.4,-352.9 567.1,-352.7 583.1,-459.2 					"/>
				</g>
				<g id="triangle36_797_" class="st17">
					<polygon class="st2" points="-17.5,-454.5 -3.9,-459.2 -7.6,-459.2 -17.5,-455.8 					"/>
				</g>
				<g id="triangle36_816_" class="st7">
					<polygon class="st2" points="1960.7,407.6 1960.7,406.3 1923.1,417.6 1959.5,350 1960.7,353.8 1960.7,349.6 1959.8,346.9 
						1920.7,419.6 					"/>
				</g>
				<g id="triangle36_817_" class="st6">
					<polygon class="st2" points="1960.7,417.3 1960.7,415.6 1907,465.2 1922.3,419.1 1960.7,407.6 1960.7,406.3 1921.7,418 
						1921.4,418.1 1904.4,469.2 					"/>
				</g>
				<g id="triangle36_825_" class="st14">
					<polygon class="st2" points="1960.7,-133.4 1960.7,-134.7 1858.9,-143.4 1960.7,-207 1960.7,-208.4 1855.2,-142.5 					"/>
				</g>
				<g id="triangle36_837_" class="st12">
					<path class="st2" d="M1795.7,39l2.2,1.1l113.9,54.2l-27.7,60.8l-0.6-0.8L1795.7,39z M1910.3,94.9l-110.6-52.7l84.3,110.6
						L1910.3,94.9z"/>
				</g>
				<g id="triangle36_838_" class="st6">
					<path class="st2" d="M1862.7,12.9l0.3,0.4l49.6,82.7l-116.4-55.4L1862.7,12.9z M1909.5,93.2l-47.3-78.8l-63.1,26.3L1909.5,93.2
						z"/>
				</g>
				<g id="triangle36_839_" class="st15">
					<path class="st2" d="M1797.1-19.7l66.8,33.4l-66.8,27.9V-19.7z M1861,13.6l-62.7-31.4v57.5L1861,13.6z"/>
				</g>
				<g id="triangle36_840_" class="st1">
					<path class="st2" d="M1798.3-20.4V41l-0.3,0.2L1692.2,108L1798.3-20.4z M1797.1,40.3v-57.4l-99.1,120L1797.1,40.3z"/>
				</g>
				<g id="triangle36_841_" class="st3">
					<path class="st2" d="M1799.4,38.9l-55.5,99.8l-49.9-33.3l0.8-0.5L1799.4,38.9z M1743.5,137l52.5-94.6l-99.8,63L1743.5,137z"/>
				</g>
				<g id="triangle36_862_" class="st16">
					<polygon class="st2" points="1319.4,-459.2 1530.9,-412.8 1468.4,-391.9 1318.3,-459.2 1315.4,-459.2 1468.1,-390.7 
						1468.3,-390.7 1535.4,-413 1325,-459.2 					"/>
				</g>
				<g id="triangle36_863_" class="st14">
					<polygon class="st2" points="1315.4,-459.2 1466.7,-391.4 1349.9,-348.9 1313.1,-459.2 1311.9,-459.2 1349,-347.9 
						1349.2,-347.3 1469.9,-391.2 1318.3,-459.2 					"/>
				</g>
				<g id="triangle36_869_" class="st9">
					<path class="st2" d="M529-311.1l22.6,28.3l-1.2,0.1l-83.7,5.6L529-311.1z M549.2-283.8l-20.6-25.7l-56.5,30.8L549.2-283.8z"/>
				</g>
				<g id="triangle36_870_" class="st16">
					<path class="st2" d="M552.4-284l-83.6,61.3v-55.7l0.6,0L552.4-284z M470-225.1l78.4-57.5l-78.4,5.2V-225.1z"/>
				</g>
				<g id="triangle36_871_" class="st6">
					<path class="st2" d="M474.3-393.2l55.4,83.1l-0.6,0.3l-60.3,32.9l0-1.1L474.3-393.2z M528-310.5l-52.6-78.9L470.1-279
						L528-310.5z"/>
				</g>
				<g id="triangle36_872_" class="st8">
					<path class="st2" d="M475.5-393.1l-0.1,1.9L470-276.9l-0.8-0.5l-60-32.7L475.5-393.1z M468.9-278.9l5.3-110.6l-63.2,79
						L468.9-278.9z"/>
				</g>
				<g id="triangle36_873_" class="st17">
					<path class="st2" d="M408.1-312l61.9,33.8v56.3L408.1-312z M468.8-277.6l-56.9-31l56.9,82.7V-277.6z"/>
				</g>
				<g id="triangle36_941_" class="st10">
					<polygon class="st2" points="1311.9,-459.2 1348.7,-348.6 1210.5,-327.3 1310.8,-459.2 1309.2,-459.2 1207.8,-325.7 
						1350.3,-347.6 1313.1,-459.2 					"/>
				</g>
				<g id="triangle36_942_" class="st12">
					<polygon class="st2" points="1309.2,-459.2 1209.8,-328.4 1215.1,-450.2 1296.6,-459.2 1285.7,-459.2 1214,-451.2 
						1208.5,-324.6 1310.8,-459.2 					"/>
				</g>
				<g id="triangle36_1062_" class="st16">
					<path class="st2" d="M1349.4-348.7l0.3,1.2l-141.2,43.4V-327l0.5-0.1L1349.4-348.7z M1209.8-305.7l131.7-40.5L1209.8-326
						V-305.7z"/>
				</g>
				<g id="triangle36_1129_" class="st1">
					<path class="st2" d="M31.4-187l0.9,0.4l99,38.5L36.9-126L31.4-187z M127.2-148.5l-94.5-36.7l5.2,57.7L127.2-148.5z"/>
				</g>
				<g id="triangle36_1130_" class="st6">
					<path class="st2" d="M131.8-149.5l-106,83.7L37-127.2l0.4-0.1L131.8-149.5z M27.6-68.8l99.2-78.3L38-126.2L27.6-68.8z"/>
				</g>
				<g id="triangle36_1131_" class="st4">
					<polygon class="st2" points="-17.5,-120.3 31.6,-184.5 36.8,-127.1 -17.5,-103.8 -17.5,-102.5 37.7,-126.2 38.1,-126.3 
						32.5,-187.7 -17.5,-122.3 					"/>
				</g>
				<g id="triangle36_1132_" class="st17">
					<polygon class="st2" points="-17.5,-102.5 36.7,-125.7 26.2,-68.2 -17.5,-86.4 -17.5,-85.1 26.4,-66.8 27.1,-66.5 38.3,-127.7 
						-17.5,-103.8 					"/>
				</g>
				<g id="triangle36_1154_" class="st6">
					<polygon class="st2" points="-17.5,-288.8 31.9,-309.6 52.6,-278.4 -17.5,-272.3 -17.5,-271.1 53.7,-277.3 54.7,-277.4 
						32.3,-311.1 -17.5,-290.1 					"/>
				</g>
				<g id="triangle36_1155_" class="st5">
					<polygon class="st2" points="-17.5,-271.1 52.9,-277.2 31.7,-187.2 -17.5,-226 -17.5,-224.5 31.7,-185.7 32.4,-185.1 
						54.5,-278.6 -17.5,-272.3 					"/>
				</g>
				<g id="triangle36_1156_" class="st9">
					<polygon class="st2" points="-17.5,-224.5 31,-186.2 -17.5,-155.9 -17.5,-154.4 32.4,-185.6 33.1,-186.1 -17.5,-226 					"/>
				</g>
				<g id="triangle36_1169_" class="st12">
					<polygon class="st2" points="1960.7,348.3 1960.7,346.6 1960.3,347 1960.3,285.1 1960.7,285.5 1960.7,283.8 1959.1,282.2 
						1959.1,349.9 					"/>
				</g>
				<g id="triangle36_1221_" class="st14">
					<path class="st2" d="M215.1-171.2l1,0.8l70.2,59.4l-0.8,0.9l-70.4-54.2V-171.2z M265.7-126.8l-49.5-41.8v3.8L265.7-126.8z"/>
				</g>
				<g id="triangle36_1222_" class="st9">
					<path class="st2" d="M222-221.2l-5.9,53.4l-11.9-23.7l0.2-0.3L222-221.2z M215.3-172l4.9-43.8l-14.6,24.3L215.3-172z"/>
				</g>
				<g id="triangle36_1223_" class="st3">
					<path class="st2" d="M205.4-191.8l10.9,21.9v8.5l-12-29.9L205.4-191.8z M215.1-169.8l-4.3-8.5l4.3,10.6V-169.8z"/>
				</g>
				<g id="triangle36_1239_" class="st4">
					<polygon class="st2" points="402.5,-459.2 361.1,-391.9 155.5,-381.3 399.4,-459.2 395.5,-459.2 146.3,-379.7 361.5,-390.7 
						361.8,-390.7 403.9,-459.2 					"/>
				</g>
				<g id="triangle36_1240_" class="st13">
					<path class="st2" d="M362.5-392l-49.4,93.2l-0.5-0.3l-164-82L362.5-392z M312.6-300.3l47.8-90.3L153.2-380L312.6-300.3z"/>
				</g>
				<g id="triangle36_1247_" class="st9">
					<path class="st2" d="M1823.2,222.5l56.5,39.5l-28.2,22.6L1823.2,222.5z M1877.7,262.1l-51.5-36.1l25.8,56.7L1877.7,262.1z"/>
				</g>
				<g id="triangle36_1248_" class="st6">
					<path class="st2" d="M1846.3,168.5l33.6,95.1l-55.9-39.1l0.2-0.4L1846.3,168.5z M1877.5,260.5l-31.2-88.5l-20.8,52.1
						L1877.5,260.5z"/>
				</g>
				<g id="triangle36_1268_" class="st10">
					<path class="st2" d="M548.9-284.3l1.7,0.4l87.1,21.8l-0.3,0.7l-27.4,54.8l-0.6-0.7L548.9-284.3z M635.9-261.3l-84-21l57.7,73.5
						L635.9-261.3z"/>
				</g>
				<g id="triangle36_1269_" class="st13">
					<path class="st2" d="M555.4-305.8l86,45.9l-91.7-22.9L555.4-305.8z M632.2-263.5l-76-40.5l-5.1,20.3L632.2-263.5z"/>
				</g>
				<g id="triangle36_1272_" class="st6">
					<path class="st2" d="M1500.3-349.7l55.3,77.4l-0.6,0.3l-71.2,38.4L1500.3-349.7z M1553.8-272.7l-52.7-73.8l-15.8,110.7
						L1553.8-272.7z"/>
				</g>
				<g id="triangle36_1273_" class="st16">
					<path class="st2" d="M1534.3-413.9l-33.5,67l-33.5-44.6L1534.3-413.9z M1500.6-349.2l31.3-62.6l-62.6,20.9L1500.6-349.2z"/>
				</g>
				<g id="triangle36_1274_" class="st7">
					<path class="st2" d="M1501.7-350.9l-16.7,116.7l-61.1,11.1L1501.7-350.9z M1484-235.2l15.7-110.1l-73.4,120.5L1484-235.2z"/>
				</g>
				<g id="triangle36_1275_" class="st17">
					<path class="st2" d="M1468.5-392l0.3,0.4l33.1,44.2h-155.8L1468.5-392z M1499.5-348.7l-31.4-41.9L1353-348.7H1499.5z"/>
				</g>
				<g id="triangle36_1276_" class="st4">
					<path class="st2" d="M1348.5-348.7h153.3l-76.7,125.9L1348.5-348.7z M1499.6-347.5h-149l74.5,122.4L1499.6-347.5z"/>
				</g>
				<g id="triangle36_1332_" class="st13">
					<path class="st2" d="M301.6,196.9l1,0.7L264.4,263l-6.3-6.3L301.6,196.9z M264.1,261.1l31.4-53.8l-35.9,49.3L264.1,261.1z"/>
				</g>
				<g id="triangle36_1357_" class="st4">
					<path class="st2" d="M1856.8-143.4l0.7,1L1765.4-72l-12.1-6l0.9-0.6L1856.8-143.4z M1765.2-73.4l80.8-61.8l-90.3,57
						L1765.2-73.4z"/>
				</g>
				<g id="triangle36_1358_" class="st17">
					<path class="st2" d="M1661.2-214.3l197.3,71.2l-1,0.7l-103.1,65.1l-0.3-0.5L1661.2-214.3z M1855.7-142.8l-191.5-69.1l90.4,133
						L1855.7-142.8z"/>
				</g>
				<g id="triangle36_1359_" class="st12">
					<path class="st2" d="M1752.6-79.8l13.2,6.6l32.5,54.1l-1,0.7L1752.6-79.8z M1764.9-72.3l-8.4-4.2l33.7,46.4L1764.9-72.3z"/>
				</g>
				<g id="triangle36_1360_" class="st1">
					<path class="st2" d="M1754.3-79.4l0.7,1l43.5,59.8l-104.9,127L1754.3-79.4z M1796.9-18.8l-42.2-58.1l-58.1,179.5L1796.9-18.8z"
						/>
				</g>
				<g id="triangle36_1361_" class="st4">
					<path class="st2" d="M1755.4-78.9l-60.1,185.7l-0.7-1L1586.1-46.2l0.9-0.2L1755.4-78.9z M1694.9,104.1l58.7-181.5l-165.5,32
						L1694.9,104.1z"/>
				</g>
				<g id="triangle36_1362_" class="st6">
					<path class="st2" d="M1662-215.3l94.6,139.2l-89.1-55.7l0-0.3L1662-215.3z M1752.4-80.2l-88.9-130.8l5.2,78.5L1752.4-80.2z"/>
				</g>
				<g id="triangle36_1363_" class="st3">
					<path class="st2" d="M1668-132.9l0.4,0.3l87.7,54.8l-1.5,0.3l-169.2,32.8L1668-132.9z M1752.9-78.4l-84.7-52.9l-79.4,84.7
						L1752.9-78.4z"/>
				</g>
				<g id="triangle36_1380_" class="st13">
					<path class="st2" d="M1528,72.2l0.2,0.6l27.9,67l-62-50.7L1528,72.2z M1553.2,135.9l-25.8-62l-31,15.5L1553.2,135.9z"/>
				</g>
				<g id="triangle36_1436_" class="st16">
					<path class="st2" d="M1391-95.5l-144.7,72.3v-50.1l0.5-0.1L1391-95.5z M1247.5-25.1l136.1-68l-136.1,20.9V-25.1z"/>
				</g>
				<g id="triangle36_1455_" class="st16">
					<path class="st2" d="M839.2-109l69,74.7h-28.7l-0.2-0.3L839.2-109z M905.4-35.5l-60.6-65.7l35.4,65.7H905.4z"/>
				</g>
				<g id="triangle36_1476_" class="st11">
					<path class="st2" d="M696.2-445.9H919l-28.2,28.2l-0.3,0l-194.4-27L696.2-445.9z M916.1-444.7H704.9l185.5,25.8L916.1-444.7z"
						/>
				</g>
				<g id="triangle36_1477_" class="st13">
					<polygon class="st2" points="617.7,-459.2 892.7,-445.9 696.3,-445.9 603.1,-459.2 594.6,-459.2 696.2,-444.7 917.6,-444.7 
						917.6,-445.9 642.7,-459.2 					"/>
				</g>
				<g id="triangle36_1498_" class="st12">
					<polygon class="st2" points="-17.5,120 74.2,148.9 37.5,190.9 -17.5,126.8 -17.5,128.6 37.5,192.8 76.3,148.3 -17.5,118.7 
											"/>
				</g>
				<g id="triangle36_1499_" class="st11">
					<polygon class="st2" points="-17.5,92.9 70.7,146.6 -17.5,118.7 -17.5,120 79.8,150.7 -17.5,91.5 					"/>
				</g>
				<g id="triangle36_1508_" class="st15">
					<path class="st2" d="M1350.9-350.8l-44.1,171l-60.7-33.1L1350.9-350.8z M1305.9-181.6l42.3-163.7l-100.4,132L1305.9-181.6z"/>
				</g>
				<g id="triangle36_1509_" class="st6">
					<path class="st2" d="M1351.1-349.2l-104.4,137.3l-0.4-1l-38-92.4l0.6-0.2L1351.1-349.2z M1247.1-214.3L1347.9-347l-138,42.4
						L1247.1-214.3z"/>
				</g>
				<g id="triangle36_1510_" class="st14">
					<path class="st2" d="M1209.3-306.2l0.4,1.1l38.2,92.8l-88.4-16.6L1209.3-306.2z M1246-213.9l-36.9-89.7l-47.5,73.9L1246-213.9z
						"/>
				</g>
				<g id="triangle36_1539_" class="st6">
					<path class="st2" d="M1743.5,136.8l83.5,89.1l-105.8-44.5L1743.5,136.8z M1822.3,222.6l-78.5-83.7l-20.9,41.8L1822.3,222.6z"/>
				</g>
				<g id="triangle36_1540_" class="st6">
					<path class="st2" d="M1721.3,180.1l104.5,44l-88,66L1721.3,180.1z M1823.5,224.4L1722.9,182l15.9,105.9L1823.5,224.4z"/>
				</g>
				<g id="triangle36_1541_" class="st12">
					<path class="st2" d="M1693.9,103.9l50.5,33.7l-22.5,44.9L1693.9,103.9z M1742.9,138l-46.6-31.1l25.9,72.6L1742.9,138z"/>
				</g>
				<g id="triangle36_1542_" class="st17">
					<path class="st2" d="M1722.6,180.3l0.1,0.7l16.6,110.9L1678,191.5L1722.6,180.3z M1737.3,286.2l-15.7-104.4l-41.8,10.4
						L1737.3,286.2z"/>
				</g>
				<g id="triangle36_1543_" class="st15">
					<path class="st2" d="M1694.9,103.1l28,78.3l-0.6,0.2l-44.1,11L1694.9,103.1z M1721.3,180.6l-26-72.9l-15.6,83.3L1721.3,180.6z"
						/>
				</g>
				<g id="triangle36_1546_" class="st13">
					<path class="st2" d="M150.2-381.5l0.9,0.5l164.1,82l-159.5,5.5l0-0.6L150.2-381.5z M310.5-300l-158.9-79.5l5.3,84.8L310.5-300z
						"/>
				</g>
				<g id="triangle36_1547_" class="st13">
					<path class="st2" d="M155.9-295.5l66.8,77.9l-77.9-16.7l0.1-0.6L155.9-295.5z M219.4-219.5l-62.8-73.3l-10.5,57.6L219.4-219.5z
						"/>
				</g>
				<g id="triangle36_1548_" class="st10">
					<path class="st2" d="M151.3-382.6l0.1,2l5.4,87h-55.7L151.3-382.6z M155.6-294.7l-5.2-83.7l-47.1,83.7H155.6z"/>
				</g>
				<g id="triangle36_1549_" class="st9">
					<path class="st2" d="M101.1-294.7H157l-11.2,61.5L101.1-294.7z M155.5-293.5h-52.1l41.7,57.3L155.5-293.5z"/>
				</g>
				<g id="triangle36_1550_" class="st14">
					<path class="st2" d="M1215.2-452.4l-5.5,127.1l-60.8-49.7L1215.2-452.4z M1208.6-327.7l5.3-121.2l-63.3,73.8L1208.6-327.7z"/>
				</g>
				<g id="triangle36_1551_" class="st8">
					<path class="st2" d="M1150.1-375.6l59.6,48.8v23.5l-60.5-71.4L1150.1-375.6z M1208.5-326.2l-54.1-44.3l54.1,63.9V-326.2z"/>
				</g>
				<g id="triangle36_1552_" class="st14">
					<path class="st2" d="M1149-376.9l60.9,71.9l-0.2,0.4l-49.6,77.1l-0.1-1.8L1149-376.9z M1208.4-304.9l-57.9-68.4l10.5,142.1
						L1208.4-304.9z"/>
				</g>
				<g id="triangle36_1553_" class="st7">
					<path class="st2" d="M1150.3-376.1l11,147.9l-131.5-76.7l0.9-0.5L1150.3-376.1z M1159.9-230.4l-10.6-143.7l-117.1,69.2
						L1159.9-230.4z"/>
				</g>
				<g id="triangle36_1595_" class="st10">
					<polygon class="st2" points="-17.5,431.5 20.2,435.3 -16.6,487.9 -17.5,487.1 -17.5,488.7 -16.9,489.2 -16.4,489.7 22.4,434.3 
						-17.5,430.3 					"/>
				</g>
				<g id="triangle36_1622_" class="st10">
					<path class="st2" d="M1813.5,304.8l0.8,0.9l-66.6,66.6l6.3-18.8L1813.5,304.8z M1750.5,367.8l54.5-54.5l-49.9,40.8
						L1750.5,367.8z"/>
				</g>
				<g id="triangle36_1623_" class="st14">
					<path class="st2" d="M1737.5,288.2l77.8,16.7l-61.1,50L1737.5,288.2z M1812.5,305.6l-73.4-15.7l15.7,62.9L1812.5,305.6z"/>
				</g>
				<g id="triangle36_1624_" class="st15">
					<path class="st2" d="M1806.7-57.8l105.7,38.9l-50,33.4L1806.7-57.8z M1909.8-18.6l-99.5-36.7l52.4,68.1L1909.8-18.6z"/>
				</g>
				<g id="triangle36_1625_" class="st16">
					<path class="st2" d="M1857.1-144.3l55,126.6l-104.6-38.5L1857.1-144.3z M1910-19.8L1857-141.6l-47.7,84.7L1910-19.8z"/>
				</g>
				<g id="triangle36_1626_" class="st15">
					<path class="st2" d="M1808.2-57.9l56.3,73.2L1797-18.4L1808.2-57.9z M1860.4,11.9l-51.7-67.2l-10.3,36.2L1860.4,11.9z"/>
				</g>
				<g id="triangle36_1627_" class="st12">
					<path class="st2" d="M1859-145.2l-50.3,89.4l-44.7-16.8l0.9-0.7L1859-145.2z M1808.2-57.3l46.9-83.4l-88.6,67.8L1808.2-57.3z"
						/>
				</g>
				<g id="triangle36_1628_" class="st5">
					<path class="st2" d="M1763.9-73.9l45.3,17l-11.3,39.7L1763.9-73.9z M1807.8-56.2l-41.1-15.4l30.8,51.3L1807.8-56.2z"/>
				</g>
				<g id="triangle36_1675_" class="st8">
					<path class="st2" d="M1580.1,82.9l1.8,0.3l114,21.7l-16.5,88.2L1580.1,82.9z M1694.4,105.9l-111-21.1l95.2,105.8L1694.4,105.9z
						"/>
				</g>
				<g id="triangle36_1676_" class="st12">
					<path class="st2" d="M1581.6,82.8l0.6,0.7l99,110l-127.3-55.4l0.3-0.6L1581.6,82.8z M1676.6,190.2l-94.7-105.3l-26.3,52.6
						L1676.6,190.2z"/>
				</g>
				<g id="triangle36_1677_" class="st17">
					<path class="st2" d="M1526.7,72.2l55.9,11.2l-0.4,0.7l-27.6,55.2L1526.7,72.2z M1580.8,84.3l-52.1-10.4l26.1,62.5L1580.8,84.3z
						"/>
				</g>
				<g id="triangle36_1690_" class="st16">
					<path class="st2" d="M280.9-79.9l5.6,62l-39.4-11.3L280.9-79.9z M285.2-19.6L280-76.4l-31,46.5L285.2-19.6z"/>
				</g>
				<g id="triangle36_1697_" class="st5">
					<path class="st2" d="M361.8-30.2l0.2,0.4l27.7,60.9l-1.5-0.7L283.8-19.1L361.8-30.2z M387.2,28.6l-26.1-57.5l-73.2,10.4
						L387.2,28.6z"/>
				</g>
				<g id="triangle36_1699_" class="st1">
					<path class="st2" d="M512.6-100.7l0.5,0.6l98.2,114.5l-1.5-0.1L446.8-2L512.6-100.7z M608.4,12.9L512.7-98.7L448.9-3
						L608.4,12.9z"/>
				</g>
				<g id="triangle36_1701_" class="st5">
					<path class="st2" d="M514.3-101.2L448.1-1.8L447.7-2l-87.9-27.5L514.3-101.2z M447.6-3.3l63.4-95L363.1-29.6L447.6-3.3z"/>
				</g>
				<g id="triangle36_1702_" class="st3">
					<path class="st2" d="M360.3-30.5l89,27.8l-61.2,33.4L360.3-30.5z M446.3-2.4l-83.8-26.2L388.7,29L446.3-2.4z"/>
				</g>
				<g id="triangle36_1703_" class="st10">
					<path class="st2" d="M668.7-167.1l44.4,100l-50,38.9L668.7-167.1z M711.7-67.5l-42-94.4l-5.2,131.1L711.7-67.5z"/>
				</g>
				<g id="triangle36_1704_" class="st6">
					<path class="st2" d="M653.5-267.9l16.3,103.3l-1.2,0.3l-32.6-97.8L653.5-267.9z M667.5-171.6l-15-94.7l-15,5L667.5-171.6z"/>
				</g>
				<g id="triangle36_1705_" class="st1">
					<path class="st2" d="M636.9-263.3l0.5,1.4l33,99L609-207.5l0.2-0.5L636.9-263.3z M668-166.1l-31.3-94l-26.1,52.2L668-166.1z"/>
				</g>
				<g id="triangle36_1706_" class="st9">
					<path class="st2" d="M609.6-208.7l61.1,44.4l-88.8,22.2L609.6-208.7z M667.8-164.8l-57.7-42l-26.2,63L667.8-164.8z"/>
				</g>
				<g id="triangle36_1707_" class="st11">
					<path class="st2" d="M892.6-419.7l-72.2,83.3l-0.4-0.6L787-380.8L892.6-419.7z M820.4-338.3l68.2-78.7L789-380.2L820.4-338.3z"
						/>
				</g>
				<g id="triangle36_1708_" class="st8">
					<path class="st2" d="M693.8-446.2L893-418.6l-105.1,38.7l-0.3-0.2L693.8-446.2z M888.1-418l-189.5-26.3l89.5,63.2L888.1-418z"
						/>
				</g>
				<g id="triangle36_1728_" class="st15">
					<path class="st2" d="M1798-348.8l0.2,0.3l66.1,104.6l-154.7-88.4l1.6-0.3L1798-348.8z M1860.7-247.2l-63.3-100.2l-84.4,15.8
						L1860.7-247.2z"/>
				</g>
				<g id="triangle36_1729_" class="st12">
					<path class="st2" d="M1711-332.8l153.3,87.6l-202.5,32.8L1711-332.8z M1860.7-245.8L1711.6-331l-47.9,117.2L1860.7-245.8z"/>
				</g>
				<g id="triangle36_1730_" class="st15">
					<path class="st2" d="M1712.4-333L1663-212.3l-0.6-0.3l-109.1-60l1.2-0.5L1712.4-333z M1662.4-214l47.8-116.9l-154.1,58.4
						L1662.4-214z"/>
				</g>
				<g id="triangle36_1769_" class="st5">
					<path class="st2" d="M1690.1,299.4l65.1,54.3l-5.9,17.6l-60.1-71L1690.1,299.4z M1753.8,354l-59.2-49.3l54.2,64.1L1753.8,354z"
						/>
				</g>
				<g id="triangle36_1770_" class="st5">
					<path class="st2" d="M1738.7,288.3l16.8,67.2l-67.1-56L1738.7,288.3z M1753.5,352.2l-15.6-62.4l-46.8,10.4L1753.5,352.2z"/>
				</g>
				<g id="triangle36_1771_" class="st13">
					<path class="st2" d="M1689.9,299.2l62.7,74.1l-96.8-68.4L1689.9,299.2z M1745.6,366.8l-56.1-66.3l-30.6,5.1L1745.6,366.8z"/>
				</g>
				<g id="triangle36_1772_" class="st11">
					<path class="st2" d="M1678,189.3l61.2,100.2l-50.1,11.1L1678,189.3z M1737.3,288.6l-57.6-94.2l10.5,104.7L1737.3,288.6z"/>
				</g>
				<g id="triangle36_1773_" class="st9">
					<path class="st2" d="M1679.1,187.6l11.3,112.7l-33.8,5.6l0.2-0.8L1679.1,187.6z M1689,299.3L1678.7,196l-20.7,108.5L1689,299.3
						z"/>
				</g>
				<g id="triangle36_1776_" class="st12">
					<path class="st2" d="M1424.8-225.3l55.5,66.6l-72.1,11.1L1424.8-225.3z M1478-159.6l-52.5-63l-15.8,73.5L1478-159.6z"/>
				</g>
				<g id="triangle36_1777_" class="st16">
					<path class="st2" d="M1481.6-160.1L1386-92.7l22.5-56.2l0.3-0.1L1481.6-160.1z M1388.6-96l88-62.1l-67.3,10.4L1388.6-96z"/>
				</g>
				<g id="triangle36_1778_" class="st7">
					<path class="st2" d="M1425.9-224.9l-0.2,1.1l-16.3,76.2l-0.6-0.2l-104.3-32.9L1425.9-224.9z M1408.5-149.1l15.8-73.9
						l-116.1,42.2L1408.5-149.1z"/>
				</g>
				<g id="triangle36_1779_" class="st7">
					<path class="st2" d="M1304.3-182l105.4,33.3l-22.2,55.5L1304.3-182z M1408.1-147.9l-99.8-31.5l78.8,84L1408.1-147.9z"/>
				</g>
				<g id="triangle36_1815_" class="st6">
					<polygon class="st2" points="1960.7,470 1960.7,468.8 1907.2,466.7 1960.7,417.3 1960.7,415.6 1904.2,467.8 					"/>
				</g>
				<g id="triangle36_1846_" class="st5">
					<path class="st2" d="M1149.6-375.7l0.5,1.1L1031-304.2l-34-17L1149.6-375.7z M1030.9-305.6l113.1-66.8L1000.1-321L1030.9-305.6
						z"/>
				</g>
				<g id="triangle36_1847_" class="st17">
					<path class="st2" d="M998.3-321.9l33.7,16.8l-84.2,84.2L998.3-321.9z M1030-304.7l-31.1-15.6L952.2-227L1030-304.7z"/>
				</g>
				<g id="triangle36_1848_" class="st4">
					<path class="st2" d="M818.6-338.1l1.8,0.2l179.1,16.3L950.2-223l-0.6-0.5L818.6-338.1z M997.6-320.6l-175.5-16l127.6,111.7
						L997.6-320.6z"/>
				</g>
				<g id="triangle36_1849_" class="st6">
					<path class="st2" d="M890.5-419.2l0.5,0.4l109.3,98.4l-181.2-16.5L890.5-419.2z M996.8-321.9l-106.2-95.6l-69,79.6L996.8-321.9
						z"/>
				</g>
				<g id="triangle36_1907_" class="st17">
					<path class="st2" d="M1883.9,153.5l0.4,1.1l-38,16.2h-8.7L1883.9,153.5z M1846.2,169.6l13.7-5.9l-15.6,5.9H1846.2z"/>
				</g>
				<g id="triangle36_1908_" class="st5">
					<path class="st2" d="M1796,37.4l89.1,116.9l-44.5,16.7L1796,37.4z M1883.1,153.8l-83.7-109.9l41.9,125.6L1883.1,153.8z"/>
				</g>
				<g id="triangle36_1909_" class="st13">
					<path class="st2" d="M1840.4,169.6h6.7l-21.9,54.8l-1.1-0.4L1840.4,169.6z M1845.4,170.8h-4.1l-12.2,40.6L1845.4,170.8z"/>
				</g>
				<g id="triangle36_1910_" class="st16">
					<path class="st2" d="M1741.6,136.5l100,33.3l-16.7,55.6L1741.6,136.5z M1840.1,170.6l-94.4-31.5l78.6,83.9L1840.1,170.6z"/>
				</g>
				<g id="triangle36_1911_" class="st8">
					<path class="st2" d="M1797.8,39.2l44,132l-99-33L1797.8,39.2z M1839.9,169.3l-42.4-127.1l-53,95.4L1839.9,169.3z"/>
				</g>
				<g id="triangle36_1937_" class="st6">
					<polygon class="st2" points="-17.5,190 36.6,192.4 -17.5,325.1 -17.5,328.3 38,192.1 38.4,191.3 -17.5,188.8 					"/>
				</g>
				<g id="triangle36_1938_" class="st3">
					<polygon class="st2" points="-17.5,128.6 36.1,191.2 -17.5,188.8 -17.5,190 37.5,192.4 38.8,192.5 -17.5,126.8 					"/>
				</g>
				<g id="triangle36_1989_" class="st16">
					<path class="st2" d="M1882.3,260.9l78,22.3V350L1882.3,260.9z M1959.1,284.1l-73.2-20.9l73.2,83.6V284.1z"/>
				</g>
				<g id="triangle36_1990_" class="st10">
					<path class="st2" d="M1960.7,284.5v-0.7l-27.5-33l-0.2-0.3l-51.3,11.4L1960.7,284.5z M1958,282.5l-71.4-20.4l45.9-10.2
						L1958,282.5z"/>
				</g>
				<g id="triangle36_1991_" class="st14">
					<path class="st2" d="M1960.7,349.7v-1.1l-76.1-87l-0.3-0.4l-33.6,22.4L1960.7,349.7z M1956.7,345.9l-103.9-62.3l31.2-20.8
						L1956.7,345.9z"/>
				</g>
				<g id="triangle36_1992_" class="st13">
					<path class="st2" d="M1883.5,151.5l50.1,100.2l-50.1,11.1V151.5z M1931.8,250.8l-47.1-94.2v104.7L1931.8,250.8z"/>
				</g>
				<g id="triangle36_1993_" class="st9">
					<path class="st2" d="M1884.7,153.1v111.9l-39.2-95.2L1884.7,153.1z M1883.5,259V155l-36.4,15.6L1883.5,259z"/>
				</g>
				<g id="triangle36_1994_" class="st9">
					<path class="st2" d="M1878.5,261.4h7.6l-34.1,22.7l-0.7-1L1878.5,261.4z M1882.1,262.6h-3.2l-16,12.8L1882.1,262.6z"/>
				</g>
				<g id="triangle36_1995_" class="st6">
					<path class="st2" d="M1846.8,170l38.1,92.6h-6.7l-32.5-92.2L1846.8,170z M1883.2,261.4l-28.5-69.3l24.4,69.3H1883.2z"/>
				</g>
				<g id="triangle36_2030_" class="st17">
					<path class="st2" d="M451.2-5.1l-63.4,63.4V29.5l0.3-0.2L451.2-5.1z M389,55.4L444.5,0L389,30.2V55.4z"/>
				</g>
				<g id="triangle36_2032_" class="st10">
					<path class="st2" d="M286.1-19.3L389,29.5V58L285.5-18.3L286.1-19.3z M387.8,30.2l-96.6-45.8l96.6,71.2V30.2z"/>
				</g>
				<g id="triangle36_2117_" class="st4">
					<path class="st2" d="M669.9-165.5l-5.5,137.4l-1-1l-87-92.4l0.8-0.4L669.9-165.5z M663.3-31l5.3-132.6l-90.1,42.4L663.3-31z"/>
				</g>
				<g id="triangle36_2118_" class="st11">
					<path class="st2" d="M669.1-165.1l0.4,1.1l-92.9,43.7l5.8-23.2l0.4-0.1L669.1-165.1z M578.3-122.4l85.1-40l-80.1,20
						L578.3-122.4z"/>
				</g>
				<g id="triangle36_2119_" class="st5">
					<path class="st2" d="M576.3-123.4l88.4,93.9l-0.5,0.4l-54.7,43.8L576.3-123.4z M662.9-29.6l-84.4-89.7l31.6,131.9L662.9-29.6z"
						/>
				</g>
				<g id="triangle36_2120_" class="st6">
					<path class="st2" d="M577.9-122.1L611,15.9l-99.4-116l0.8-0.3L577.9-122.1z M608.6,11.4L577-120.6l-63.3,21.1L608.6,11.4z"/>
				</g>
				<g id="triangle36_2202_" class="st3">
					<path class="st2" d="M312.8-300.7l44.5,72.2l-77.8-16.7L312.8-300.7z M354.8-230.2l-41.9-68.1l-31.5,52.4L354.8-230.2z"/>
				</g>
				<g id="triangle36_2263_" class="st8">
					<path class="st2" d="M611.2-209.4L583-141.9L554.9-170L611.2-209.4z M582.6-144l25.9-62.1l-51.7,36.2L582.6-144z"/>
				</g>
				<g id="triangle36_2264_" class="st16">
					<path class="st2" d="M549.7-285.2l61,77.6l-55.4,38.8L549.7-285.2z M609-207.8l-57.8-73.6l5.3,110.4L609-207.8z"/>
				</g>
				<g id="triangle36_2265_" class="st5">
					<path class="st2" d="M554-172.6l29.5,29.5l-0.1,0.3l-5.8,23.3L554-172.6z M582.1-142.7l-24.5-24.5l19.6,44L582.1-142.7z"/>
				</g>
				<g id="triangle36_2266_" class="st12">
					<path class="st2" d="M555.9-171.2l22.3,50.2l-67,22.3L555.9-171.2z M576.6-121.7l-20.9-46.9L514-100.8L576.6-121.7z"/>
				</g>
				<g id="triangle36_2267_" class="st4">
					<path class="st2" d="M551-284.5l0.1,1.1l5.5,114.5l-88.1-55.1l0.7-0.5L551-284.5z M555.2-171l-5.3-111.1L470.5-224L555.2-171z"
						/>
				</g>
				<g id="triangle36_2268_" class="st5">
					<path class="st2" d="M468.3-225.3l88.3,55.2l-44.2,71.8L468.3-225.3z M555-169.7l-84.4-52.8l42.2,121.4L555-169.7z"/>
				</g>
				<g id="triangle36_2274_" class="st17">
					<path class="st2" d="M469.8-224.8l0.2,0.7l43.7,125.6l-148.2-71.3L469.8-224.8z M511.6-100.9l-42.5-122.2l-100.9,53.1
						L511.6-100.9z"/>
				</g>
				<g id="triangle36_2275_" class="st8">
					<path class="st2" d="M366.3-170.9l0.8,0.4L514-99.7L360.8-28.6L366.3-170.9z M511.2-99.7L367.4-169l-5.3,138.5L511.2-99.7z"/>
				</g>
				<g id="triangle36_2276_" class="st8">
					<path class="st2" d="M355.3-230l0.8,0l115.6,5.5L366.4-169l-0.1-0.8L355.3-230z M467.2-223.4l-110.4-5.3l10.5,57.8L467.2-223.4
						z"/>
				</g>
				<g id="triangle36_2277_" class="st9">
					<path class="st2" d="M278.3-246.6l78.3,16.8l0.1,0.4l11.1,61.1l-1.3-1.1L278.3-246.6z M355.5-228.8l-72.9-15.6l83.3,72.9
						L355.5-228.8z"/>
				</g>
				<g id="triangle36_2278_" class="st1">
					<path class="st2" d="M279.8-246.9l1.1,0.9l87,76.1l-0.6,0.4l-81.9,60.1L279.8-246.9z M365.9-170l-84.8-74.2l5.3,132.5
						L365.9-170z"/>
				</g>
				<g id="triangle36_2291_" class="st1">
					<polygon class="st2" points="1960.7,-221.7 1960.7,-222.9 1901.6,-219.2 1959.5,-287.6 1960.7,-284.8 1960.7,-287.9 
						1959.8,-289.9 1898.9,-217.8 					"/>
				</g>
				<g id="triangle36_2292_" class="st12">
					<polygon class="st2" points="1960.7,-207 1960.7,-208.4 1858.8,-144.7 1900.6,-217.9 1960.7,-221.7 1960.7,-222.9 
						1900.2,-219.1 1899.9,-219.1 1855.4,-141.1 					"/>
				</g>
				<g id="triangle36_2293_" class="st12">
					<path class="st2" d="M1861.9-246.6l39.1,28l-0.3,0.5l-44.5,77.8L1861.9-246.6z M1899.5-218.3l-36.5-26l-5.2,99L1899.5-218.3z"
						/>
				</g>
				<g id="triangle36_2390_" class="st1">
					<polygon class="st2" points="1959.4,187.7 1960.7,186.2 1960.7,184.3 1959.9,185.1 1944.2,127.4 1960.7,119.1 1960.7,117.8 
						1943.2,126.5 1942.8,126.7 					"/>
				</g>
				<g id="triangle36_2391_" class="st5">
					<path class="st2" d="M1943.9,126.2l16.7,61.3l-78-33.4L1943.9,126.2z M1958.8,185.4l-15.7-57.5l-57.5,26.1L1958.8,185.4z"/>
				</g>
				<g id="triangle36_2392_" class="st3">
					<path class="st2" d="M1882.8,152.8l77.7,33.3l-0.2,0.5l-27.5,66l-0.6-1.2L1882.8,152.8z M1958.9,186.8l-73.5-31.5l47.3,94.5
						L1958.9,186.8z"/>
				</g>
				<g id="triangle36_2718_" class="st3">
					<path class="st2" d="M1586.9-47l0.7,0.9l109.6,153.4l-2.3-1.3l-135.4-75.8L1586.9-47z M1693,103.6L1587.3-44.5l-26.4,74
						L1693,103.6z"/>
				</g>
				<g id="triangle36_2719_" class="st4">
					<path class="st2" d="M1558.9,28.5l139.7,78.2l-117.3-22.4L1558.9,28.5z M1691.6,104.2l-130.3-72.9l20.8,52.1L1691.6,104.2z"/>
				</g>
				<g id="triangle36_2720_" class="st3">
					<path class="st2" d="M1560.3,28.6l22.4,56l-56-11.2L1560.3,28.6z M1580.7,83l-20.8-52l-31.2,41.6L1580.7,83z"/>
				</g>
				<g id="triangle36_2721_" class="st13">
					<path class="st2" d="M1588-46.5l-0.3,1l-27.2,76.3l-0.6-0.3l-98.7-54.8L1588-46.5z M1559.8,29l26.4-74l-121.5,21.1L1559.8,29z"
						/>
				</g>
				<g id="triangle36_2722_" class="st15">
					<path class="st2" d="M1538.6-111.5l0.4,0.6l49.2,65.6l-1,0.2l-125.9,21.9L1538.6-111.5z M1586-46.2l-47.6-63.4l-74,84.5
						L1586-46.2z"/>
				</g>
				<g id="triangle36_2723_" class="st8">
					<path class="st2" d="M1461-25.9l100,55.5l-33.3,44.4L1461-25.9z M1559.2,30l-94.4-52.5l62.9,94.4L1559.2,30z"/>
				</g>
				<g id="triangle36_2724_" class="st17">
					<path class="st2" d="M1478.7-160.3l60.7,49.7l-0.4,0.5l-76.9,87.9L1478.7-160.3z M1537.7-110.5l-58.1-47.5l-15.8,132
						L1537.7-110.5z"/>
				</g>
				<g id="triangle36_2725_" class="st15">
					<path class="st2" d="M1461.3-27.7l67.3,101l-33.7,16.8l-0.2-0.7L1461.3-27.7z M1526.8,72.8l-62.3-93.4l31.1,109L1526.8,72.8z"
						/>
				</g>
				<g id="triangle36_2727_" class="st8">
					<path class="st2" d="M1479.9-160.4l-0.2,1.3l-16.3,136.2l-77-71.5L1479.9-160.4z M1462.5-25.4l15.9-132.5l-90.1,63.6
						L1462.5-25.4z"/>
				</g>
				<g id="triangle36_2728_" class="st10">
					<path class="st2" d="M1387.4-95.1l0.3,0.3l76.7,71.2h-220.1L1387.4-95.1z M1461.4-24.7l-74.2-68.9l-137.7,68.9H1461.4z"/>
				</g>
				<g id="triangle36_2740_" class="st11">
					<path class="st2" d="M258.8,255.7l6.4,6.4l-25.5,19.1L258.8,255.7z M263.3,262l-4.4-4.4l-13.3,17.7L263.3,262z"/>
				</g>
				<g id="triangle36_2741_" class="st17">
					<path class="st2" d="M261.1,254.6L243,278.7l-0.2,0.1l-54.1,18L261.1,254.6z M242.3,277.7l14.3-19.1L199.4,292L242.3,277.7z"/>
				</g>
				<g id="triangle36_2775_" class="st3">
					<polygon class="st2" points="-17.5,-348.5 29.8,-311.3 -17.5,-319.7 -17.5,-318.4 34.3,-309.3 -17.5,-350 					"/>
				</g>
				<g id="triangle36_2776_" class="st16">
					<polygon class="st2" points="-17.5,-318.4 30,-310.1 -17.5,-290.1 -17.5,-288.8 34.2,-310.5 -17.5,-319.7 					"/>
				</g>
				<g id="triangle36_2794_" class="st6">
					<path class="st2" d="M261.4,255.8l-67.3,39.2l-0.3-0.1L110,267L261.4,255.8z M194,293.8l62.3-36.3l-140.2,10.4L194,293.8z"/>
				</g>
				<g id="triangle36_2795_" class="st3">
					<path class="st2" d="M74.2,147.3l1.4,0.8l185.2,109l-1.9,0.1l-146.3,10.8L74.2,147.3z M256.9,256.2L76.3,150l37.2,116.8
						L256.9,256.2z"/>
				</g>
				<g id="triangle36_2796_" class="st10">
					<path class="st2" d="M109.6,265.6l85.8,28.6l-22.9,17.2l-0.4-0.3L109.6,265.6z M192.8,294.6l-76.2-25.4l55.9,40.6L192.8,294.6z
						"/>
				</g>
				<g id="triangle36_2797_" class="st16">
					<path class="st2" d="M112.9,266.5l0.6,0.4l60.1,43.7L46.7,387.9L112.9,266.5z M171.4,310.6l-58.1-42.3L49.9,384.5L171.4,310.6z
						"/>
				</g>
				<g id="triangle36_2798_" class="st10">
					<path class="st2" d="M75.5,147.4l0.3,1l38.5,121.1l-77.7-77.7l0.4-0.4L75.5,147.4z M111.7,265.3L75,149.8l-36.7,42L111.7,265.3
						z"/>
				</g>
				<g id="triangle36_2799_" class="st17">
					<polygon class="st2" points="-17.5,336 111.6,268.9 48.1,385.3 -17.5,340 -17.5,341.4 48.5,387.1 114.5,266 -17.5,334.6 					
						"/>
				</g>
				<g id="triangle36_2800_" class="st9">
					<polygon class="st2" points="-17.5,328.3 37.7,192.9 112.1,267.3 -17.5,334.6 -17.5,336 113.3,268 114.1,267.6 37.3,190.8 
						-17.5,325.1 					"/>
				</g>
				<g id="triangle36_2829_" class="st14">
					<path class="st2" d="M312.4-299.9l1,0.7L280.9-245l-18.4,6.1L312.4-299.9z M280-246l28-46.7l-42,51.4L280-246z"/>
				</g>
				<g id="triangle36_2830_" class="st1">
					<path class="st2" d="M314.2-300.2l-49.7,60.8l-0.4-0.2l-110.1-55.1L314.2-300.2z M264.1-240.9l47.4-58l-152.9,5.3L264.1-240.9z
						"/>
				</g>
				<g id="triangle36_2831_" class="st4">
					<path class="st2" d="M281-246.3l0,0.8l5.4,135l-1.2,0.1l-21.7-130.1L281-246.3z M284.9-120.1l-5-124.6l-15,5L284.9-120.1z"/>
				</g>
				<g id="triangle36_2832_" class="st12">
					<path class="st2" d="M264.6-241.7L286.7-109l-1.3-1.1l-70.6-59.7l0.3-0.4L264.6-241.7z M285-112l-21.1-126.5L216.5-170L285-112
						z"/>
				</g>
				<g id="triangle36_2833_" class="st14">
					<path class="st2" d="M266.1-241.7l-51.3,74.1l5.7-51.3l0.3-0.1L266.1-241.7z M216.5-172.2l45.9-66.3l-40.8,20.4L216.5-172.2z"
						/>
				</g>
				<g id="triangle36_2834_" class="st10">
					<path class="st2" d="M153.9-296l111.7,55.9l-44.7,22.3l-0.3-0.4L153.9-296z M262.9-240.1l-104.2-52.1l62.5,73L262.9-240.1z"/>
				</g>
				<g id="triangle36_2869_" class="st7">
					<path class="st2" d="M49.3,385l-11.7,35.2l-11.7-23.4L49.3,385z M37.4,417l9.9-29.6l-19.8,9.9L37.4,417z"/>
				</g>
				<g id="triangle36_2870_" class="st8">
					<polygon class="st2" points="-17.5,341.4 47.1,386.1 26.8,396.3 -17.5,342.1 -17.5,344 26.2,397.4 26.5,397.8 49.5,386.3 
						-17.5,340 					"/>
				</g>
				<g id="triangle36_2871_" class="st5">
					<path class="st2" d="M26.4,395l11.9,23.7l-17.8,17.8L26.4,395z M36.7,418.5L27,399l-4.9,34.1L36.7,418.5z"/>
				</g>
				<g id="triangle36_2872_" class="st7">
					<polygon class="st2" points="-17.5,408.1 26,397.8 20.8,434.2 -17.5,430.3 -17.5,431.5 21.8,435.5 27.3,397.1 27.4,396.2 
						-17.5,406.9 					"/>
				</g>
				<g id="triangle36_2873_" class="st13">
					<polygon class="st2" points="-17.5,344 25.6,396.7 -17.5,406.9 -17.5,408.1 27.8,397.4 -17.5,342.1 					"/>
				</g>
				<g id="triangle36_3012_" class="st7">
					<path class="st2" d="M389.6,56.2l-0.6,1l-86.8,141.1l-0.5-0.6L192.8,67.1L194,67L389.6,56.2z M302,196.2l85.3-138.7l-192,10.7
						L302,196.2z"/>
				</g>
				<g id="triangle36_3013_" class="st13">
					<path class="st2" d="M285.8-19.5l0.4,0.3l103.9,76.6l-1.7,0.1l-196,10.9L285.8-19.5z M386.7,56.3L285.9-18L195.7,67L386.7,56.3
						z"/>
				</g>
				<g id="triangle36_3014_" class="st3">
					<path class="st2" d="M192.4,64.8l2.1,2.5l108.3,129.9l-0.3,0.4l-43.9,60.3l-0.4-1.1L192.4,64.8z M301.3,197.3L195.7,70.5
						l63.4,184.8L301.3,197.3z"/>
				</g>
				<g id="triangle36_3015_" class="st16">
					<path class="st2" d="M247.8-30.2L287-19l-0.8,0.7l-94.6,89L247.8-30.2z M284.7-18.5l-36.3-10.4l-51.9,93.4L284.7-18.5z"/>
				</g>
				<g id="triangle36_3016_" class="st9">
					<path class="st2" d="M194.4,66.7L260,258l-1.4-0.8L74.2,148.7l0.8-0.5L194.4,66.7z M257.8,255.3l-64-186.7l-117.4,80
						L257.8,255.3z"/>
				</g>
				<g id="triangle36_3017_" class="st7">
					<path class="st2" d="M249.3-30.6l-56,100.9l5.6-84.1l0.4-0.1L249.3-30.6z M194.8,65l51.9-93.5L200-12.9L194.8,65z"/>
				</g>
				<g id="triangle36_3018_" class="st12">
					<path class="st2" d="M23.8-68.9l176.3,55.1l0,0.5l-5.5,82.1l-0.9-0.7L23.8-68.9z M198.8-12.9L29.5-65.8l164,132.3L198.8-12.9z"
						/>
				</g>
				<g id="triangle36_3019_" class="st7">
					<path class="st2" d="M25.7-68.9L195.1,67.7l-0.7,0.5L74.9,149.6l-0.2-0.9L25.7-68.9z M193.1,67.6L27.6-65.8l48,213.4
						L193.1,67.6z"/>
				</g>
				<g id="triangle36_3047_" class="st12">
					<polygon class="st2" points="1285.7,-459.2 1214.6,-451.3 1174.1,-455.8 1266.1,-459.2 1233.6,-459.2 1165.9,-456.7 
						1165.9,-455.5 1214.6,-450.1 1296.6,-459.2 					"/>
				</g>
				<g id="triangle36_3048_" class="st5">
					<polygon class="st2" points="1233.6,-459.2 1166,-456.7 895.4,-459.2 765.3,-459.2 1165.9,-455.5 1266.1,-459.2 					"/>
				</g>
				<g id="triangle36_3049_" class="st14">
					<path class="st2" d="M1165.5-456.8l50.3,5.6l-67,78.2L1165.5-456.8z M1213.4-450.2l-46.9-5.2l-15.6,78.2L1213.4-450.2z"/>
				</g>
				<g id="triangle36_3050_" class="st9">
					<polygon class="st2" points="895.4,-459.2 765.4,-459.2 1143.1,-455.7 917.6,-445.9 642.6,-459.2 617.7,-459.2 917.6,-444.7 
						1166,-455.5 1166,-456.7 					"/>
				</g>
				<g id="triangle36_3089_" class="st11">
					<path class="st2" d="M1603.2-413.8l0.5,0.4l109.6,82.2l-2-0.1l-157.6-10.9L1603.2-413.8z M1709.3-332.6L1603.4-412l-47.6,68.8
						L1709.3-332.6z"/>
				</g>
				<g id="triangle36_3090_" class="st4">
					<path class="st2" d="M1554.1-343.3l0.6,0l159.3,11l-160,60.7V-343.3z M1708.5-331.5l-153.2-10.6v68.7L1708.5-331.5z"/>
				</g>
				<g id="triangle36_3091_" class="st3">
					<path class="st2" d="M1532.3-413.5h72.2l-50,72.2L1532.3-413.5z M1602.2-412.3h-68.2l21,68.2L1602.2-412.3z"/>
				</g>
				<g id="triangle36_3092_" class="st16">
					<path class="st2" d="M1499.5-348.8l55.9,5.6v72.6L1499.5-348.8z M1554.1-342.2l-52.1-5.2l52.1,73V-342.2z"/>
				</g>
				<g id="triangle36_3093_" class="st17">
					<path class="st2" d="M1533.2-414.5l22.3,72.5l-55.8-5.6L1533.2-414.5z M1553.9-343.4l-20.9-67.9l-31.3,62.7L1553.9-343.4z"/>
				</g>
				<g id="triangle36_3105_" class="st10">
					<path class="st2" d="M1166.7-456.8l-16.5,82.4l-0.6-0.2l-197.2-65.7L1166.7-456.8z M1149.3-375.9l15.9-79.5l-206.8,15.9
						L1149.3-375.9z"/>
				</g>
				<g id="triangle36_3106_" class="st14">
					<path class="st2" d="M1165.9-456.7l0.1,1.2l-210.6,16.2l-37.9-5.4l0.1-1.2L1165.9-456.7z M955.4-440.5l174.5-13.4L924.1-445
						L955.4-440.5z"/>
				</g>
				<g id="triangle36_3107_" class="st12">
					<path class="st2" d="M954.4-440.9l1.2,0.4l196,65.3l-1.6,0.6l-151.7,54.2l-0.2-0.6L954.4-440.9z M1147.9-375.1l-191.5-63.8
						l42.6,117.1L1147.9-375.1z"/>
				</g>
				<g id="triangle36_3108_" class="st11">
					<path class="st2" d="M955.7-440.7l0.2,0.6l44,121.1l-110.6-99.5L955.7-440.7z M997.2-323.2l-42.2-116l-63.3,21.1L997.2-323.2z"
						/>
				</g>
				<g id="triangle36_3109_" class="st9">
					<path class="st2" d="M917.4-445.9l0.3,0l40.3,5.8l-69.6,23.2L917.4-445.9z M952.8-439.7l-35-5l-25,25L952.8-439.7z"/>
				</g>
				<g id="triangle36_3173_" class="st10">
					<path class="st2" d="M392.3-459.2l-263.1,61.9l-1.3,0.3l22.6,17l0.2,0.2l248.7-79.4H392.3z M130.7-396.4l259.1-61L151-381.2
						L130.7-396.4z"/>
				</g>
				<g id="triangle36_3174_" class="st11">
					<polygon class="st2" points="392.3,-459.2 129.4,-397.3 49.9,-459.2 47.9,-459.2 128.9,-396.2 129.1,-396 397.5,-459.2 					
						"/>
				</g>
				<g id="triangle36_3175_" class="st4">
					<path class="st2" d="M128.9-397.7l22.7,17.1l-0.3,0.5l-50.9,90.5L128.9-397.7z M150.1-380.3l-20.5-15.3L104-298.5L150.1-380.3z
						"/>
				</g>
				<g id="triangle36_3176_" class="st12">
					<path class="st2" d="M130.4-398.5l-27.7,105.1L30.8-310l0.9-0.8L130.4-398.5z M101.8-294.8l26.3-100.1l-94.8,84.3L101.8-294.8z
						"/>
				</g>
				<g id="triangle36_3376_" class="st7">
					<path class="st2" d="M1306.3-181.6l82.9,88.4l-2-0.5l-125.1-32.6L1306.3-181.6z M1385.5-95.4l-79.1-84.4l-42.2,52.7
						L1385.5-95.4z"/>
				</g>
				<g id="triangle36_3377_" class="st3">
					<path class="st2" d="M1262.7-127.5l0.6,0.1l127,33.1L1246.1-72L1262.7-127.5z M1384.4-94.5L1263.6-126l-15.8,52.5L1384.4-94.5z
						"/>
				</g>
				<g id="triangle36_3378_" class="st1">
					<path class="st2" d="M1246.1-214.3l61.1,33.3l-0.4,0.6l-44,55L1246.1-214.3z M1305.4-180.5l-57.6-31.4l15.7,83.9L1305.4-180.5z
						"/>
				</g>
				<g id="triangle36_3379_" class="st6">
					<path class="st2" d="M1158.8-230.3l88.7,16.6l0.1,0.4l16.6,88.3L1158.8-230.3z M1246.4-212.6l-84.1-15.8l99.8,99.8
						L1246.4-212.6z"/>
				</g>
				<g id="triangle36_3380_" class="st3">
					<path class="st2" d="M1264.1-127.7l-16.7,55.6h-127.9L1264.1-127.7z M1246.5-73.3l15.7-52.4L1126-73.3H1246.5z"/>
				</g>
				<g id="triangle36_3381_" class="st7">
					<path class="st2" d="M1160.7-230.1l106.1,106.1l-145.2-83.8L1160.7-230.1z M1259.5-129.5l-99-99l-36.5,20.9L1259.5-129.5z"/>
				</g>
				<g id="triangle36_3382_" class="st12">
					<path class="st2" d="M1122.2-208.8l0.9,0.5l141.5,81.6l-1.2,0.5l-141.2,54.3V-208.8z M1261.8-126.8l-138.4-79.8v133.1
						L1261.8-126.8z"/>
				</g>
				<g id="triangle36_3420_" class="st10">
					<path class="st2" d="M367.6-175.2L362-28.3l-28.2-22.6l0.1-0.4L367.6-175.2z M360.9-30.8l5.2-133.9L335.1-51.4L360.9-30.8z"/>
				</g>
				<g id="triangle36_3421_" class="st5">
					<path class="st2" d="M367.9-171.4L334.7-49.9L285-110.6l0.5-0.4L367.9-171.4z M334.2-52.4l31.6-116l-79.1,58L334.2-52.4z"/>
				</g>
				<g id="triangle36_3422_" class="st12">
					<path class="st2" d="M334.5-51.9l28.4,22.7l-1.4,0.2l-78.2,11.2L334.5-51.9z M360-29.9l-25.6-20.5l-46,30.7L360-29.9z"/>
				</g>
				<g id="triangle36_3423_" class="st8">
					<path class="st2" d="M285.5-111.9l51.2,62.6l-56.9-28.5L285.5-111.9z M332.2-52.9l-46-56.2l-5.1,30.6L332.2-52.9z"/>
				</g>
				<g id="triangle36_3424_" class="st17">
					<path class="st2" d="M279.8-79.2l55.9,27.9l-50.3,33.5L279.8-79.2z M333.2-51.1l-52.1-26.1l5.2,57.3L333.2-51.1z"/>
				</g>
				<g id="triangle36_3433_" class="st16">
					<polygon class="st2" points="47.9,-459.2 112.7,-408.8 43.3,-456.5 41.5,-459.2 40.1,-459.2 42.4,-455.8 128.9,-396.2 
						129.6,-397.2 49.9,-459.2 					"/>
				</g>
				<g id="triangle36_3434_" class="st11">
					<path class="st2" d="M42.4-457.2l0.9,0.6l87,59.8l-98.9,87.9l0.1-1.5L42.4-457.2z M128.3-396.6L43.4-455L32.8-311.7
						L128.3-396.6z"/>
				</g>
				<g id="triangle36_3435_" class="st14">
					<polygon class="st2" points="-17.5,-396.6 -17.5,-394.9 43.7,-456 41.5,-459.2 40.1,-459.2 42.1,-456.2 					"/>
					<polygon class="st2" points="-17.5,-404 23.2,-459.2 21.7,-459.2 -17.5,-406 					"/>
				</g>
				<g id="triangle36_3436_" class="st15">
					<polygon class="st2" points="-17.5,-394.9 42.2,-454.5 31.6,-311.5 -17.5,-350 -17.5,-348.5 32.6,-309.1 43.6,-457.7 
						-17.5,-396.6 					"/>
				</g>
				<g id="triangle36_3477_" class="st3">
					<path class="st2" d="M1949.3-420.4l11,132.3h-82.7l0.5-0.9L1949.3-420.4z M1959-289.3l-10.6-126.9l-68.7,126.9H1959z"/>
				</g>
				<g id="triangle36_3478_" class="st6">
					<path class="st2" d="M1960.7-289.3h-82.8l22.2,72l60.6-71.7V-289.3z M1879.5-288.1h78.9l-57.8,68.4L1879.5-288.1z"/>
				</g>
				<g id="triangle36_3479_" class="st17">
					<path class="st2" d="M1950-419l-71.7,132.4l-11-121.3l0.6-0.1L1950-419z M1879.1-290.7l68.7-126.8l-79.2,10.6L1879.1-290.7z"/>
				</g>
				<g id="triangle36_3480_" class="st15">
					<path class="st2" d="M1878.7-290.6l22.6,73.6l-39.6-28.3L1878.7-290.6z M1899.2-220l-20.6-66.8l-15.4,41.1L1899.2-220z"/>
				</g>
				<g id="triangle36_3481_" class="st13">
					<path class="st2" d="M1868.4-408.8l11.2,123.2l-44.8-89.6l0.3-0.3L1868.4-408.8z M1877.8-291.8l-10.4-114.3l-31.2,31.2
						L1877.8-291.8z"/>
				</g>
				<g id="triangle36_3482_" class="st15">
					<path class="st2" d="M1795.5-350.5l83.9,61.5l-16.8,44.8L1795.5-350.5z M1878-288.5l-78.1-57.2l62.5,98.9L1878-288.5z"/>
				</g>
				<g id="triangle36_3483_" class="st16">
					<path class="st2" d="M1835.7-376l44.6,89.2l-83.7-61.4L1835.7-376z M1877-290.7l-41.8-83.5l-36.5,26.1L1877-290.7z"/>
				</g>
				<g id="triangle36_3517_" class="st9">
					<polygon class="st2" points="1960.7,119.1 1960.7,117.8 1944.4,125.9 1960.1,62.9 1960.7,63 1960.7,61.8 1959.7,61.7 
						1959.2,61.6 1942.6,128.2 					"/>
				</g>
				<g id="triangle36_3519_" class="st4">
					<polygon class="st2" points="1960.7,58.4 1959.6,60.9 1913,-16.8 1960.7,15 1960.7,13.6 1909.2,-20.7 1959.8,63.6 1960.7,61.5 
											"/>
				</g>
				<g id="triangle36_3520_" class="st9">
					<path class="st2" d="M1960.6,60.9l-16.8,67.3l-33.7-33.7L1960.6,60.9z M1943.1,125.9l15.6-62.3L1912,94.7L1943.1,125.9z"/>
				</g>
				<g id="triangle36_3521_" class="st8">
					<path class="st2" d="M1960.7,62.1l-99.8-49.9l50,83.3l49.8-33.2V62.1z M1864.1,15.1l94.4,47.2l-47.2,31.5L1864.1,15.1z"/>
				</g>
				<g id="triangle36_3522_" class="st11">
					<path class="st2" d="M1960.7,63.4v-0.7l-49.4-82.3l-50,33.3L1960.7,63.4z M1958.1,60.8l-94.4-47.2l47.2-31.5L1958.1,60.8z"/>
				</g>
				<g id="triangle36_3530_" class="st6">
					<path class="st2" d="M213.1-111.1h73.5l-5.6,33.9L213.1-111.1z M285.1-109.9h-66.9L280-79L285.1-109.9z"/>
				</g>
				<g id="triangle36_3531_" class="st11">
					<path class="st2" d="M215.1-165.7l72.6,55.8h-72.6V-165.7z M284.1-111.1l-67.8-52.2v52.2H284.1z"/>
				</g>
				<g id="triangle36_3532_" class="st7">
					<path class="st2" d="M214.5-111.8l66.8,33.4l-33.4,50.1L214.5-111.8z M279.6-77.9l-62.8-31.4l31.4,78.5L279.6-77.9z"/>
				</g>
				<g id="triangle36_3533_" class="st9">
					<path class="st2" d="M215.4-112.8l33.4,83.6l-50.1,16.7l0.2-1L215.4-112.8z M247.3-29.9l-31.4-78.4l-15.7,94.1L247.3-29.9z"/>
				</g>
				<g id="triangle36_3534_" class="st15">
					<path class="st2" d="M216.3-165.2v55.6l-0.8-0.4l-88.2-38.6L216.3-165.2z M215.1-111.4v-52.4l-83.8,15.7L215.1-111.4z"/>
				</g>
				<g id="triangle36_3535_" class="st4">
					<path class="st2" d="M127.9-149.6l1.6,0.7l86.8,38l-0.1,0.5l-16.5,99L127.9-149.6z M215-110.2l-84.4-36.9l68.6,131.9L215-110.2
						z"/>
				</g>
				<g class="st10">
					<polygon class="st2" points="1960.7,-421 1948.8,-418.9 1832.9,-414.1 1960.7,-430.7 1960.7,-431.9 1819.2,-413.5 
						1819.3,-412.3 1949,-417.7 1960.7,-419.8 					"/>
				</g>
				<g class="st6">
					<polygon class="st2" points="1342,-459.2 1329.4,-459.2 1819.4,-412.3 1960.7,-430.7 1960.7,-431.9 1819.3,-413.5 					"/>
				</g>
				<g id="triangle36_3576_" class="st5">
					<path class="st2" d="M1948.8-418.9l0.1,1.2l-81,10.8l-48.7-5.4l0-1.2L1948.8-418.9z M1867.9-408.1l67.8-9l-108.5,4.5
						L1867.9-408.1z"/>
				</g>
				<g id="triangle36_3577_" class="st16">
					<path class="st2" d="M1818.3-413.6l50.9,5.6l-33.9,33.9L1818.3-413.6z M1866.6-407l-46.3-5.1l15.4,36L1866.6-407z"/>
				</g>
				<g id="triangle36_3578_" class="st6">
					<path class="st2" d="M1819.2-414.6l17,39.7l-0.4,0.3l-39.3,28.1L1819.2-414.6z M1834.7-375.3l-15.4-35.9l-20.5,61.5
						L1834.7-375.3z"/>
				</g>
				<g id="triangle36_3579_" class="st1">
					<path class="st2" d="M1820.5-414.5l-22.3,67l-0.3,0.1l-88.9,16.7L1820.5-414.5z M1797.2-348.6l20.9-62.6L1713.7-333
						L1797.2-348.6z"/>
				</g>
				<g id="triangle36_3580_" class="st7">
					<path class="st2" d="M1601.5-413.5h219.6l-109.8,82.3L1601.5-413.5z M1817.5-412.3h-212.4l106.2,79.6L1817.5-412.3z"/>
				</g>
				<g id="triangle36_3581_" class="st1">
					<polygon class="st2" points="1329.4,-459.2 1806.7,-413.5 1603.4,-413.5 1329.1,-459.2 1321.8,-459.2 1603.3,-412.3 
						1819.3,-412.3 1819.3,-413.5 1342,-459.2 					"/>
				</g>
				<g id="triangle36_3608_" class="st1">
					<path class="st2" d="M695.7-446.4l93.8,66.2l-104.9,16.6l0.1-0.8L695.7-446.4z M786.4-380.9l-89.8-63.4L686.1-365L786.4-380.9z
						"/>
				</g>
				<g id="triangle36_3609_" class="st15">
					<polygon class="st2" points="594.6,-459.2 695.5,-444.8 685,-365.5 586.1,-459.2 584.4,-459.2 685,-363.9 685.8,-363.1 
						696.8,-445.2 696.9,-445.8 603.1,-459.2 					"/>
				</g>
				<g id="triangle36_3610_" class="st14">
					<path class="st2" d="M686.3-365l-0.3,0.9L653.3-266l-88-88l1.3-0.1L686.3-365z M652.7-268.2l31.8-95.4L568-353L652.7-268.2z"/>
				</g>
				<g id="triangle36_3611_" class="st8">
					<polygon class="st2" points="584.4,-459.2 684,-364.8 567.3,-354.2 583.1,-459.2 581.9,-459.2 566,-353.6 565.9,-352.8 
						686.8,-363.8 586.1,-459.2 					"/>
				</g>
				<g id="triangle36_3627_" class="st7">
					<polygon class="st2" points="578.2,-459.2 474.9,-392.1 443.5,-428.7 575.6,-459.2 570.2,-459.2 441.3,-429.5 474.7,-390.5 
						580.4,-459.2 					"/>
				</g>
				<g id="triangle36_3628_" class="st9">
					<polygon class="st2" points="570.2,-459.2 442.6,-429.8 408.2,-459.2 406.4,-459.2 442.3,-428.4 575.6,-459.2 					"/>
				</g>
				<g id="triangle36_3629_" class="st5">
					<path class="st2" d="M442.6-429.8l33.5,39.1H358.7L442.6-429.8z M473.5-391.9l-31.2-36.5l-78.1,36.5H473.5z"/>
				</g>
				<g id="triangle36_3630_" class="st17">
					<polygon class="st2" points="406.4,-459.2 441.3,-429.2 363,-392.7 403.9,-459.2 402.5,-459.2 359.9,-389.9 443.5,-428.9 
						408.2,-459.2 					"/>
				</g>
				<g id="triangle36_3668_" class="st16">
					<path class="st2" d="M561.6-332.4l92.8,65.5l-17.7,5.9l-75.9-70.4L561.6-332.4z M651.7-267.3l-83.5-58.9l68.7,63.8L651.7-267.3
						z"/>
				</g>
				<g id="triangle36_3669_" class="st11">
					<path class="st2" d="M566.3-354.7l87.1,87.1l-0.8,0.9l-92.1-65L566.3-354.7z M647.6-271.7l-80.7-80.7l-5,20.2L647.6-271.7z"/>
				</g>
				<g id="triangle36_3670_" class="st4">
					<path class="st2" d="M560.8-333.1l79.8,74.1l-85.5-45.6L560.8-333.1z M633-264.4l-71.4-66.3l-5.1,25.5L633-264.4z"/>
				</g>
				<g id="triangle36_3671_" class="st9">
					<path class="st2" d="M567.8-355.8l-6.1,24.2l-0.2,0.1l-36.2,24.1L567.8-355.8z M560.7-332.3l4.7-19l-33.2,37.9L560.7-332.3z"/>
				</g>
				<g id="triangle36_3672_" class="st1">
					<path class="st2" d="M562.1-333.2l-5.8,29l-29-5.8L562.1-333.2z M555.3-305.6l5-25l-30,20L555.3-305.6z"/>
				</g>
				<g id="triangle36_3678_" class="st15">
					<path class="st2" d="M821.3-338.2l-0.3,1.1l-21.8,81.7l-99.3-44.1L821.3-338.2z M798.4-257.2l21.1-79.2l-116.2,37L798.4-257.2z
						"/>
				</g>
				<g id="triangle36_3679_" class="st16">
					<path class="st2" d="M788.1-381.4l0.4,0.5l32.9,43.9l-122.1,38.9L788.1-381.4z M819.4-337.6l-31.5-42l-84,78.7L819.4-337.6z"/>
				</g>
				<g id="triangle36_3680_" class="st5">
					<path class="st2" d="M789.8-381.4l-88.6,83l-0.2-1l-16.4-65.4l0.6-0.1L789.8-381.4z M701.9-300.7l84.2-78.9l-100,15.8
						L701.9-300.7z"/>
				</g>
				<g id="triangle36_3681_" class="st16">
					<path class="st2" d="M685.5-366.5l16.8,67.2l-50.4,33.6L685.5-366.5z M700.9-299.8l-15.6-62.4l-31.2,93.6L700.9-299.8z"/>
				</g>
				<g id="triangle36_3702_" class="st14">
					<path class="st2" d="M799-257.7l0.4,1.3L843-103.6l-1.4-1L744-175.2l0.3-0.5L799-257.7z M840.9-106.6l-42.4-148.3l-53,79.4
						L840.9-106.6z"/>
				</g>
				<g id="triangle36_3703_" class="st8">
					<path class="st2" d="M700.6-300.6l99.1,44.1l-0.4,0.6l-54.7,82L700.6-300.6z M797.9-256.1l-95.3-42.3L745-176.7L797.9-256.1z"
						/>
				</g>
				<g id="triangle36_3704_" class="st1">
					<path class="st2" d="M744.7-177.2l27.8,72.3l-0.4,0.3L711.4-66L744.7-177.2z M771.1-105.4l-26.2-68.1L713.4-68.7L771.1-105.4z"
						/>
				</g>
				<g id="triangle36_3705_" class="st16">
					<path class="st2" d="M745.6-176.1L712.5-65.6l-0.7-1.5L668.3-165l0.8-0.1L745.6-176.1z M712.3-69.1L744-174.6L670.1-164
						L712.3-69.1z"/>
				</g>
				<g id="triangle36_3706_" class="st6">
					<path class="st2" d="M701.9-300.4l0.3,0.7L746.2-173l-94.2-94.2L701.9-300.4z M743.4-177.6l-42.1-121L654-267L743.4-177.6z"/>
				</g>
				<g id="triangle36_3707_" class="st1">
					<path class="st2" d="M652.1-268.8l94,94l-77.4,11.1l-0.1-0.6L652.1-268.8z M743.5-175.7l-89.6-89.6l15.8,100.2L743.5-175.7z"/>
				</g>
				<g id="triangle36_3743_" class="st17">
					<path class="st2" d="M842.1-106.2l38.7,71.9h-94L842.1-106.2z M878.8-35.5L841.9-104l-52.7,68.5H878.8z"/>
				</g>
				<g id="triangle36_3746_" class="st13">
					<path class="st2" d="M772.2-106.1l16.7,72.2l-77.7-33.3L772.2-106.1z M787.1-36l-15.7-68.2l-57.7,36.7L787.1-36z"/>
				</g>
				<g id="triangle36_3777_" class="st16">
					<path class="st2" d="M843.3-105.9l-55.8,72.5l-5.6-66.9L843.3-105.9z M788.5-36.5l52.2-67.9l-57.4,5.2L788.5-36.5z"/>
				</g>
				<g id="triangle36_3778_" class="st14">
					<path class="st2" d="M743.2-177.2l100.5,72.6l-61.4,5.6l-0.2-0.4L743.2-177.2z M840.3-105.6l-93.9-67.8l36.5,73L840.3-105.6z"
						/>
				</g>
				<g id="triangle36_3779_" class="st3">
					<path class="st2" d="M770.9-106.2l12.2,6.1l5.4,65.1l-1.2,0.2L770.9-106.2z M782-99.3l-9.4-4.7l14,60.8L782-99.3z"/>
				</g>
				<g id="triangle36_3780_" class="st1">
					<path class="st2" d="M745.3-175.6l38.6,77.2l-12.6-6.3l-0.1-0.2l-27-70.2L745.3-175.6z M781.2-101.1l-31.4-62.8l22.4,58.3
						L781.2-101.1z"/>
				</g>
				<g class="st14">
					<polygon class="st2" points="1960.7,230.7 1960.7,229.4 1960.3,229.2 1960.3,187.7 1960.7,187.9 1960.7,186.4 1960,186 
						1959.1,185.2 1959.1,230 					"/>
				</g>
				<g id="triangle36_3812_" class="st4">
					<polygon class="st2" points="1960.7,285.5 1960.7,283.8 1960.3,283.4 1960.3,233 1960.7,234 1960.7,230.6 1959.1,226.3 
						1959.1,283.9 					"/>
				</g>
				<g id="triangle36_3813_" class="st6">
					<path class="st2" d="M1960.3,183.4v46.5l-29.1,23.2L1960.3,183.4z M1959.1,229.3v-39.9l-24.9,59.8L1959.1,229.3z"/>
				</g>
				<g id="triangle36_3814_" class="st17">
					<path class="st2" d="M1960.3,228.4v56.9l-28.5-34.1L1960.3,228.4z M1959.1,282v-51.1l-25.5,20.4L1959.1,282z"/>
				</g>
			</g>
			<g id="nodes">
				<path class="st2" d="M1597.9-178.3c1.4,0,2.5-1.1,2.5-2.5s-1.1-2.5-2.5-2.5c-1.4,0-2.5,1.1-2.5,2.5S1596.5-178.3,1597.9-178.3z"
					/>
				<path class="st2" d="M1576.3-171c2.4,0,4.3-1.9,4.3-4.3c0-2.4-1.9-4.3-4.3-4.3c-2.4,0-4.3,1.9-4.3,4.3
					C1572-172.9,1573.9-171,1576.3-171z"/>
				<circle class="st2" cx="906.8" cy="-202.3" r="3.4"/>
				<circle class="st2" cx="901.4" cy="-191.5" r="3.7"/>
				<circle class="st2" cx="993.2" cy="-196.9" r="3.3"/>
				<circle class="st2" cx="1630.3" cy="-175.3" r="6.4"/>
				<circle class="st2" cx="1576.3" cy="-105.1" r="4.9"/>
				<path class="st2" d="M1921.9,423.9c2.9,0,5.3-2.4,5.3-5.3c0-2.9-2.4-5.3-5.3-5.3c-2.9,0-5.3,2.4-5.3,5.3
					C1916.5,421.6,1918.9,423.9,1921.9,423.9z"/>
				<circle class="st2" cx="37.5" cy="-126.7" r="5.6"/>
				<path class="st2" d="M32.1-179.7c3.5,0,6.4-2.9,6.4-6.4c0-3.5-2.9-6.4-6.4-6.4c-3.5,0-6.4,2.9-6.4,6.4
					C25.7-182.6,28.5-179.7,32.1-179.7z"/>
				<path class="st2" d="M204.9-185c3.6,0,6.5-2.9,6.5-6.5c0-3.6-2.9-6.5-6.5-6.5c-3.6,0-6.5,2.9-6.5,6.5
					C198.4-187.9,201.3-185,204.9-185z"/>
				<circle class="st2" cx="1484.5" cy="-234.7" r="3"/>
				<circle class="st2" cx="1668.1" cy="-132.1" r="9"/>
				<circle class="st2" cx="1754.5" cy="-78.1" r="3.9"/>
				<circle class="st2" cx="906.8" cy="-34.9" r="6.9"/>
				<path class="st2" d="M1160.6-6.1c1,0,1.8-0.8,1.8-1.8c0-1-0.8-1.8-1.8-1.8c-1,0-1.8,0.8-1.8,1.8
					C1158.7-6.9,1159.5-6.1,1160.6-6.1z"/>
				<circle class="st2" cx="1063.4" cy="-83.5" r="3.4"/>
				<path class="st2" d="M1722.1,187.6c3.6,0,6.6-3,6.6-6.6c0-3.6-3-6.6-6.6-6.6c-3.6,0-6.6,3-6.6,6.6
					C1715.5,184.7,1718.4,187.6,1722.1,187.6z"/>
				<path class="st2" d="M145.5-232.6c1.2,0,2.1-0.9,2.1-2.1s-0.9-2.1-2.1-2.1s-2.1,0.9-2.1,2.1S144.3-232.6,145.5-232.6z"/>
				<circle class="st2" cx="1813.9" cy="305.2" r="2.6"/>
				<path class="st2" d="M1797.7-10.6c4.5,0,8.1-3.6,8.1-8.1c0-4.5-3.6-8.1-8.1-8.1c-4.5,0-8.1,3.6-8.1,8.1
					C1789.6-14.2,1793.2-10.6,1797.7-10.6z"/>
				<path class="st2" d="M1765.3-66.6c3.4,0,6.1-2.7,6.1-6.1c0-3.4-2.7-6.1-6.1-6.1s-6.1,2.7-6.1,6.1
					C1759.2-69.4,1761.9-66.6,1765.3-66.6z"/>
				<path class="st2" d="M1808.5-51.9c2.6,0,4.6-2.1,4.6-4.6c0-2.6-2.1-4.6-4.6-4.6c-2.6,0-4.6,2.1-4.6,4.6
					C1803.9-54,1805.9-51.9,1808.5-51.9z"/>
				<circle class="st2" cx="1214.6" cy="-2.5" r="3.7"/>
				<circle class="st2" cx="1662.7" cy="-213.1" r="2.6"/>
				<path class="st2" d="M1754.5,357.3c1.9,0,3.4-1.5,3.4-3.4c0-1.9-1.5-3.4-3.4-3.4s-3.4,1.5-3.4,3.4
					C1751.1,355.7,1752.6,357.3,1754.5,357.3z"/>
				<path class="st2" d="M1738.3,290.9c1,0,1.9-0.8,1.9-1.9c0-1-0.8-1.9-1.9-1.9c-1,0-1.9,0.8-1.9,1.9
					C1736.4,290.1,1737.3,290.9,1738.3,290.9z"/>
				<path class="st2" d="M1657.3,310.1c2.7,0,4.8-2.2,4.8-4.8c0-2.7-2.2-4.8-4.8-4.8c-2.7,0-4.8,2.2-4.8,4.8
					C1652.5,307.9,1654.6,310.1,1657.3,310.1z"/>
				<path class="st2" d="M1689.7,308.2c4.6,0,8.4-3.8,8.4-8.4c0-4.6-3.8-8.4-8.4-8.4c-4.6,0-8.4,3.8-8.4,8.4
					C1681.3,304.5,1685.1,308.2,1689.7,308.2z"/>
				<circle class="st2" cx="1425.1" cy="-223.9" r="6.2"/>
				<circle class="st2" cx="1408.9" cy="-148.3" r="3.4"/>
				<path class="st2" d="M950-221.6c1.3,0,2.3-1,2.3-2.3s-1-2.3-2.3-2.3c-1.3,0-2.3,1-2.3,2.3S948.7-221.6,950-221.6z"/>
				<circle class="st2" cx="1824.7" cy="224.2" r="4.5"/>
				<circle class="st2" cx="1797.7" cy="40.7" r="3.5"/>
				<circle class="st2" cx="1743.7" cy="137.8" r="5"/>
				<path class="st2" d="M1833.5,170.2c0,3.7,3,6.6,6.6,6.6c1.3,0,2.4-0.4,3.4-1c1,0.6,2.2,1,3.4,1c3.7,0,6.6-3,6.6-6.6
					c0-3.7-3-6.6-6.6-6.6c-1.3,0-2.4,0.4-3.4,1c-1-0.6-2.2-1-3.4-1C1836.5,163.6,1833.5,166.6,1833.5,170.2z"/>
				<circle class="st2" cx="1851.7" cy="283.6" r="1.9"/>
				<path class="st2" d="M1880.5,263.6c0.3,0,0.6-0.1,0.8-0.2c0.2,0.1,0.5,0.2,0.8,0.2c0.9,0,1.6-0.7,1.6-1.6c0-0.9-0.7-1.6-1.6-1.6
					c-0.3,0-0.6,0.1-0.8,0.2c-0.2-0.1-0.5-0.2-0.8-0.2c-0.9,0-1.6,0.7-1.6,1.6C1878.9,262.9,1879.7,263.6,1880.5,263.6z"/>
				<path class="st2" d="M1678.9,193.6c1,0,1.8-0.8,1.8-1.8c0-1-0.8-1.8-1.8-1.8s-1.8,0.8-1.8,1.8
					C1677.1,192.8,1677.9,193.6,1678.9,193.6z"/>
				<circle class="st2" cx="1554.7" cy="137.8" r="5.4"/>
				<circle class="st2" cx="447.8" cy="-2.5" r="3.9"/>
				<path class="st2" d="M388.4,36.1c3.4,0,6.2-2.8,6.2-6.2s-2.8-6.2-6.2-6.2c-3.4,0-6.2,2.8-6.2,6.2S385,36.1,388.4,36.1z"/>
				<circle class="st2" cx="663.8" cy="-29.5" r="3.3"/>
				<path class="st2" d="M609.8,19.4c3.2,0,5.8-2.6,5.8-5.8c0-3.2-2.6-5.8-5.8-5.8c-3.2,0-5.8,2.6-5.8,5.8
					C604.1,16.8,606.6,19.4,609.8,19.4z"/>
				<path class="st2" d="M1902.8,445.6c0,1.6,1.3,2.8,2.8,2.8c1.6,0,2.8-1.3,2.8-2.8c0-1.6-1.3-2.8-2.8-2.8
					C1904.1,442.8,1902.8,444,1902.8,445.6z"/>
				<path class="st2" d="M1905.7,472.3c2.8,0,5.1-2.3,5.1-5.1c0-2.8-2.3-5.1-5.1-5.1c-2.8,0-5.1,2.3-5.1,5.1
					C1900.6,470,1902.9,472.3,1905.7,472.3z"/>
				<circle class="st2" cx="1749.1" cy="370" r="2"/>
				<circle class="st2" cx="609.8" cy="-207.7" r="4.4"/>
				<path class="st2" d="M582.8-141.5c0.8,0,1.4-0.6,1.4-1.4c0-0.8-0.6-1.4-1.4-1.4c-0.8,0-1.4,0.6-1.4,1.4
					C581.4-142.1,582-141.5,582.8-141.5z"/>
				<circle class="st2" cx="577.4" cy="-121.3" r="6.1"/>
				<circle class="st2" cx="555.8" cy="-169.9" r="6.4"/>
				<path class="st2" d="M512.6-95.3c2.4,0,4.4-2,4.4-4.4c0-2.4-2-4.4-4.4-4.4c-2.4,0-4.4,2-4.4,4.4
					C508.2-97.3,510.2-95.3,512.6-95.3z"/>
				<path class="st2" d="M469.4-218.4c3,0,5.5-2.5,5.5-5.5s-2.5-5.5-5.5-5.5c-3,0-5.5,2.5-5.5,5.5S466.4-218.4,469.4-218.4z"/>
				<circle class="st2" cx="356" cy="-229.3" r="6.4"/>
				<circle class="st2" cx="1857.1" cy="-142.9" r="3.7"/>
				<path class="st2" d="M1877.9,154c0,3.4,2.7,6.1,6.1,6.1c3.4,0,6.1-2.7,6.1-6.1c0-3.4-2.7-6.1-6.1-6.1
					C1880.7,147.9,1877.9,150.7,1877.9,154z"/>
				<circle class="st2" cx="1695.1" cy="105.4" r="5.9"/>
				<path class="st2" d="M1576.4,83.8c0,2.9,2.4,5.3,5.3,5.3c2.9,0,5.3-2.4,5.3-5.3s-2.4-5.3-5.3-5.3
					C1578.8,78.6,1576.4,80.9,1576.4,83.8z"/>
				<path class="st2" d="M1587.1-38.8c3.8,0,6.9-3.1,6.9-6.9c0-3.8-3.1-6.9-6.9-6.9c-3.8,0-6.9,3.1-6.9,6.9
					C1580.2-41.9,1583.3-38.8,1587.1-38.8z"/>
				<circle class="st2" cx="1560.1" cy="29.9" r="2.9"/>
				<path class="st2" d="M1533.2-110.5c0,2.9,2.4,5.3,5.3,5.3c2.9,0,5.3-2.4,5.3-5.3c0-2.9-2.4-5.3-5.3-5.3
					C1535.6-115.8,1533.2-113.5,1533.2-110.5z"/>
				<path class="st2" d="M1527.7,76.4c1.8,0,3.3-1.5,3.3-3.3c0-1.8-1.5-3.3-3.3-3.3c-1.8,0-3.3,1.5-3.3,3.3
					C1524.4,74.9,1525.9,76.4,1527.7,76.4z"/>
				<path class="st2" d="M1495.3,96.9c4.2,0,7.6-3.4,7.6-7.6s-3.4-7.6-7.6-7.6c-4.2,0-7.6,3.4-7.6,7.6S1491.1,96.9,1495.3,96.9z"/>
				<path class="st2" d="M1479.1-155.4c2,0,3.7-1.6,3.7-3.7s-1.6-3.7-3.7-3.7c-2,0-3.7,1.6-3.7,3.7S1477.1-155.4,1479.1-155.4z"/>
				<path class="st2" d="M1246.9-16.9c4,0,7.2-3.2,7.2-7.2c0-4-3.2-7.2-7.2-7.2c-4,0-7.2,3.2-7.2,7.2
					C1239.7-20.2,1243-16.9,1246.9-16.9z"/>
				<path class="st2" d="M1462.9-21.2c1.6,0,2.9-1.3,2.9-2.9s-1.3-2.9-2.9-2.9c-1.6,0-2.9,1.3-2.9,2.9S1461.3-21.2,1462.9-21.2z"/>
				<path class="st2" d="M242.7,280.7c1.4,0,2.5-1.1,2.5-2.5c0-1.4-1.1-2.5-2.5-2.5c-1.4,0-2.5,1.1-2.5,2.5
					C240.2,279.6,241.3,280.7,242.7,280.7z"/>
				<circle class="st2" cx="194.1" cy="294.4" r="2.6"/>
				<path class="st2" d="M172.5,313.4c1.5,0,2.8-1.2,2.8-2.8s-1.2-2.8-2.8-2.8s-2.8,1.2-2.8,2.8S170.9,313.4,172.5,313.4z"/>
				<circle class="st2" cx="37.5" cy="191.8" r="4.4"/>
				<circle class="st2" cx="113.1" cy="267.4" r="4.3"/>
				<circle class="st2" cx="280.5" cy="-245.5" r="2.9"/>
				
					<ellipse transform="matrix(0.386 -0.9225 0.9225 0.386 337.3027 69.7602)" class="st2" cx="221.1" cy="-218.5" rx="6.2" ry="6.2"/>
				
					<ellipse transform="matrix(0.9872 -0.1593 0.1593 0.9872 41.6285 39.0322)" class="st2" cx="264.3" cy="-240.1" rx="7.3" ry="7.3"/>
				<path class="st2" d="M21.3,441.8c3.8,0,7-3.1,7-7c0-3.8-3.1-7-7-7c-3.8,0-7,3.1-7,7C14.3,438.7,17.4,441.8,21.3,441.8z"/>
				<path class="st2" d="M26.7,399c1.1,0,2-0.9,2-2c0-1.1-0.9-2-2-2c-1.1,0-2,0.9-2,2C24.7,398.1,25.6,399,26.7,399z"/>
				<circle class="st2" cx="48.3" cy="386.2" r="9"/>
				<ellipse transform="matrix(0.987 -0.161 0.161 0.987 -66.8989 11.4929)" class="st2" cx="37.5" cy="418.6" rx="7.6" ry="7.6"/>
				<path class="st2" d="M388.4,62.7c3.2,0,5.8-2.6,5.8-5.8s-2.6-5.8-5.8-5.8s-5.8,2.6-5.8,5.8S385.2,62.7,388.4,62.7z"/>
				<circle class="st2" cx="302" cy="197.2" r="1.1"/>
				<path class="st2" d="M259,261.8c0.1,0,0.1,0,0.2,0c0,0.1,0,0.1,0,0.2c0,2.8,2.2,5,5,5c2.8,0,5-2.2,5-5c0-2.8-2.2-5-5-5
					c-0.1,0-0.1,0-0.2,0c0-0.1,0-0.1,0-0.2c0-2.8-2.2-5-5-5c-2.8,0-5,2.2-5,5C253.9,259.5,256.2,261.8,259,261.8z"/>
				<circle class="st2" cx="75.3" cy="148.6" r="3.9"/>
				
					<ellipse transform="matrix(2.375495e-02 -0.9997 0.9997 2.375495e-02 93.3619 -39.0631)" class="st2" cx="26.7" cy="-67.3" rx="3.7" ry="3.7"/>
				
					<ellipse transform="matrix(0.3857 -0.9226 0.9226 0.3857 56.7941 220.6017)" class="st2" cx="194.1" cy="67.7" rx="5.7" ry="5.7"/>
				<circle class="st2" cx="1387.3" cy="-94.3" r="2.8"/>
				<path class="st2" d="M1306.3-174.1c3.7,0,6.6-3,6.6-6.6c0-3.7-3-6.6-6.6-6.6c-3.7,0-6.6,3-6.6,6.6
					C1299.7-177.1,1302.7-174.1,1306.3-174.1z"/>
				<path class="st2" d="M1246.9-209.7c1.9,0,3.4-1.5,3.4-3.4c0-1.9-1.5-3.4-3.4-3.4c-1.9,0-3.4,1.5-3.4,3.4
					C1243.6-211.3,1245.1-209.7,1246.9-209.7z"/>
				<circle class="st2" cx="1246.9" cy="-72.7" r="5.5"/>
				<circle class="st2" cx="1160.6" cy="-229.3" r="4.1"/>
				<circle class="st2" cx="1122.8" cy="-207.7" r="4.1"/>
				<path class="st2" d="M1122.8-66.2c3.6,0,6.5-2.9,6.5-6.5c0-3.6-2.9-6.5-6.5-6.5c-3.6,0-6.5,2.9-6.5,6.5
					C1116.3-69.1,1119.2-66.2,1122.8-66.2z"/>
				
					<ellipse transform="matrix(0.9872 -0.1595 0.1595 0.9872 36.368 199.7889)" class="st2" cx="1263.1" cy="-126.7" rx="2.5" ry="2.5"/>
				<path class="st2" d="M360.8-169.9c0,3.3,2.7,6,6,6s6-2.7,6-6c0-3.3-2.7-6-6-6S360.8-173.2,360.8-169.9z"/>
				<path class="st2" d="M361.4-32.4c-1.6,0-2.8,1.3-2.8,2.8s1.3,2.8,2.8,2.8c1.6,0,2.8-1.3,2.8-2.8S363-32.4,361.4-32.4z"/>
				<circle class="st2" cx="285.9" cy="-18.7" r="4.5"/>
				<circle class="st2" cx="334.4" cy="-51.1" r="5.1"/>
				<path class="st2" d="M1900.3-216.6c1.1,0,1.9-0.9,1.9-1.9s-0.9-1.9-1.9-1.9c-1.1,0-1.9,0.9-1.9,1.9S1899.2-216.6,1900.3-216.6z"
					/>
				<path class="st2" d="M1862.5-244c0.8,0,1.5-0.7,1.5-1.5s-0.7-1.5-1.5-1.5s-1.5,0.7-1.5,1.5S1861.7-244,1862.5-244z"/>
				<path class="st2" d="M1943,134.8v-15.5c-4.1,0.2-7.3,3.6-7.3,7.8S1938.9,134.6,1943,134.8z"/>
				<path class="st2" d="M1911.1,96.2c0.9,0,1.6-0.7,1.6-1.6s-0.7-1.6-1.6-1.6c-0.9,0-1.6,0.7-1.6,1.6S1910.2,96.2,1911.1,96.2z"/>
				<path class="st2" d="M1911.1-11.8c3.8,0,6.9-3.1,6.9-6.9s-3.1-6.9-6.9-6.9c-3.8,0-6.9,3.1-6.9,6.9S1907.3-11.8,1911.1-11.8z"/>
				<path class="st2" d="M1862.5,18c2.4,0,4.3-1.9,4.3-4.3s-1.9-4.3-4.3-4.3c-2.4,0-4.3,1.9-4.3,4.3S1860.1,18,1862.5,18z"/>
				<circle class="st2" cx="285.9" cy="-110.5" r="6.8"/>
				<circle class="st2" cx="280.5" cy="-78.1" r="2.9"/>
				
					<ellipse transform="matrix(0.3848 -0.923 0.923 0.3848 179.8811 210.7865)" class="st2" cx="248.1" cy="-29.5" rx="3.7" ry="3.7"/>
				<path class="st2" d="M215.7-164.1c1.1,0,2.1-0.9,2.1-2.1c0-0.4-0.1-0.8-0.3-1.1c0.2-0.3,0.3-0.7,0.3-1.1c0-1.1-0.9-2.1-2.1-2.1
					c-1.1,0-2.1,0.9-2.1,2.1c0,0.4,0.1,0.8,0.3,1.1c-0.2,0.3-0.3,0.7-0.3,1.1C213.6-165,214.5-164.1,215.7-164.1z"/>
				<circle class="st2" cx="199.5" cy="-13.3" r="4.4"/>
				<path class="st2" d="M129.3-142.1c3.4,0,6.2-2.8,6.2-6.2c0-3.4-2.8-6.2-6.2-6.2c-3.4,0-6.2,2.8-6.2,6.2
					C123.1-144.9,125.8-142.1,129.3-142.1z"/>
				<path class="st2" d="M215.7-104.9c3.1,0,5.6-2.5,5.6-5.6c0-3.1-2.5-5.6-5.6-5.6s-5.6,2.5-5.6,5.6
					C210-107.4,212.6-104.9,215.7-104.9z"/>
				<circle class="st2" cx="636.8" cy="-261.7" r="7.4"/>
				<circle class="st2" cx="798.8" cy="-256.3" r="6.2"/>
				<circle class="st2" cx="669.2" cy="-164.5" r="3.3"/>
				
					<ellipse transform="matrix(0.3848 -0.923 0.923 0.3848 648.2908 438.4017)" class="st2" cx="653" cy="-267.1" rx="2.9" ry="2.9"/>
				<path class="st2" d="M879.8-29.3c3.1,0,5.7-2.5,5.7-5.7c0-3.1-2.5-5.7-5.7-5.7c-3.1,0-5.7,2.5-5.7,5.7
					C874.1-31.8,876.7-29.3,879.8-29.3z"/>
				<circle class="st2" cx="712.4" cy="-67.3" r="5.9"/>
				
					<ellipse transform="matrix(0.3847 -0.923 0.923 0.3847 615.1092 712.5034)" class="st2" cx="842" cy="-105.1" rx="2.4" ry="2.4"/>
				<path class="st2" d="M788-36.5c-0.9,0-1.6,0.7-1.6,1.6c0,0.9,0.7,1.6,1.6,1.6c0.9,0,1.6-0.7,1.6-1.6
					C789.6-35.8,788.9-36.5,788-36.5z"/>
				<path class="st2" d="M771.8-101.8c1.8,0,3.3-1.5,3.3-3.3s-1.5-3.3-3.3-3.3s-3.3,1.5-3.3,3.3S770-101.8,771.8-101.8z"/>
				<path class="st2" d="M744.8-169.5c3.2,0,5.8-2.6,5.8-5.8s-2.6-5.8-5.8-5.8c-3.2,0-5.8,2.6-5.8,5.8S741.6-169.5,744.8-169.5z"/>
				<circle class="st2" cx="782.6" cy="-99.7" r="4.3"/>
				<path class="st2" d="M1932.7,255.5c2.3,0,4.2-1.9,4.2-4.2c0-2.3-1.9-4.2-4.2-4.2s-4.2,1.9-4.2,4.2
					C1928.4,253.6,1930.3,255.5,1932.7,255.5z"/>
			</g>
		</g>
	</g>
</g>
<g id="Text_1_">
</g>
</svg>
